<?xml version="1.0" encoding="utf-8"?>
<!-- Generator: Adobe Illustrator 26.5.0, SVG Export Plug-In . SVG Version: 6.00 Build 0)  -->
<svg version="1.1" id="Layer_1" xmlns="http://www.w3.org/2000/svg" xmlns:xlink="http://www.w3.org/1999/xlink" x="0px" y="0px"
	 viewBox="0 0 1900 900" style="enable-background:new 0 0 1900 900;" xml:space="preserve">
<g>
	<g>
		<path d="M1412.75,398.08l28.68,8.35L1429.64,388c-2.22-3.6-4.67-6.91-7.11-10.37c-2.45-3.46-4.89-6.77-7.56-10.08
			c-2.67-3.31-5.11-6.63-7.78-9.94c-2.67-3.31-5.34-6.63-8.23-9.79c-2.89-3.17-5.78-6.63-8.67-9.65l-9.11-9.22
			c-3.33-3.31-6.67-6.19-10-9.36c-3.56-3.02-7.11-6.05-10.67-8.93c-3.78-2.88-7.34-5.76-11.34-8.5c-4-2.74-7.78-5.47-12-8.07
			c-4-2.59-8-5.33-12.23-7.78c-4.22-2.59-8.45-4.9-12.89-7.35c-4.45-2.45-8.67-4.75-13.12-7.06c-4.45-2.3-9.11-4.46-13.56-6.62
			c-4.67-2.16-9.34-4.32-14.01-6.34c-4.67-2.02-9.56-4.03-14.45-5.76c8.45,4.9,16.67,9.94,24.68,15.12c4,2.59,7.78,5.18,11.78,7.78
			c4,2.59,7.78,5.33,11.56,7.92c3.78,2.74,7.56,5.47,11.12,8.21c3.78,2.74,7.34,5.47,10.67,8.35c3.56,2.74,6.89,5.76,10.23,8.5
			c3.33,2.88,6.45,5.9,9.78,8.79c3.11,2.88,6,5.9,9.11,8.93c2.67,3.02,5.78,6.19,8.22,9.07l8,9.65c2.67,3.17,5.11,6.34,7.56,9.51
			c2.67,3.17,4.89,6.48,7.34,9.65c2.45,3.17,4.67,6.48,7.11,9.79c0.67,0.86,1.33,1.87,2,2.74c-1.33-0.29-2.67-0.58-4-0.72
			c-3.56-0.72-7.11-1.3-10.67-1.87c-3.56-0.58-7.11-1.3-10.67-1.73l-10.89-1.44c-3.56-0.58-7.34-0.86-10.89-1.15l-10.89-1.01
			l-1.33-0.14l-1.56-0.14l-2.67-0.14l-5.34-0.43l-11.12-0.58c-3.78-0.14-7.34-0.29-11.11-0.29c-3.78,0-7.34,0-11.12,0
			c-3.78,0-7.34,0.14-11.12,0.29c-3.78,0.14-7.56,0.29-11.12,0.58c-3.78,0.29-7.56,0.58-11.34,1.01c-1.78,0.14-3.78,0.43-5.78,0.72
			c-2,0.29-3.56,0.58-6.22,1.01l-41.79,8.35l42.46,5.18c3.11,0.43,6.67,0.86,10,1.44c3.33,0.58,6.89,1.15,10.23,1.87
			c6.67,1.44,13.34,3.02,19.78,4.75c3.33,0.86,6.45,1.87,9.56,2.88s6.22,2.02,9.34,3.17c6,2.3,11.78,4.75,17.12,7.78
			c1.33,0.72,2.67,1.44,3.78,2.3l0.89,0.58l0.22,0.14h0.22l-0.22-0.14l0.44,0.29l2,1.3c1.11,0.86,2.67,1.73,3.78,2.59l3.33,2.59
			c1.11,0.86,2,1.87,3.11,2.74c1.11,0.86,2,1.87,2.89,2.88c2,1.87,3.78,3.89,5.34,6.05c1.56,2.02,3.33,4.18,4.67,6.34
			c1.56,2.16,2.89,4.32,4,6.63c2.45,4.46,4.45,9.07,5.78,13.83c0.22-2.45,0-4.75-0.22-7.2c-0.44-2.45-0.67-4.9-1.33-7.2
			c-0.67-2.45-1.33-4.75-2.45-7.2c-0.89-2.45-2-4.75-3.33-7.06c-1.33-2.3-2.67-4.61-4.45-6.91c-0.67-1.15-1.56-2.3-2.67-3.31
			c-0.89-1.15-1.78-2.16-2.89-3.31l-3.11-3.31c-1.11-1.15-2.22-2.02-3.33-3.02l-1.56-1.44l-0.44-0.43l-0.67-0.43l-0.89-0.72
			c-1.33-1.01-2.67-1.87-4-2.88c-5.34-3.74-11.34-7.06-17.78-9.94c-5.56-2.59-11.56-5.04-17.56-7.2c1.56,0,3.33,0.14,4.89,0.14
			c3.33,0.14,6.89,0.29,10.23,0.43l10,0.72l10.45,0.86l10.23,1.01c3.33,0.43,6.89,0.72,10.23,1.15l10,1.3
			c3.33,0.43,6.67,1.01,10,1.58c3.33,0.58,6.67,1.01,10,1.73c3.33,0.58,6.67,1.15,9.78,1.87c3.11,0.72,6.45,1.3,9.56,2.16
			C1406.97,396.5,1410.3,397.36,1412.75,398.08z"/>
		<path d="M1491.77,454.96c-42.9-23.33-79.14-35.72-79.14-35.72s146.94,100.38,135.6,112.91c-11.56,12.53-56.91-1.58-56.91-1.58
			s7.34,20.45,25.34,27.36c14.67,5.76,42.24,10.51,41.79,15.7c-0.67,5.04-12.67,7.78-12.67,7.78s3.56,11.38,15.78,10.95
			c12-0.43,40.46-33.7,40.01-57.18C1600.92,522.65,1542.23,482.62,1491.77,454.96z"/>
		<path d="M1556.8,613.54c0,0-0.44,0.58-1.33,1.73c-0.67,1.15-2,2.74-3.33,4.75c-1.33,2.02-3.11,4.61-5.11,7.49
			c-2,2.88-4.22,6.05-6.67,9.51c-1.11,1.73-2.45,3.6-3.78,5.47c-1.33,1.87-2.45,3.74-4,5.76c-2.67,3.89-5.78,7.92-8.89,12.1
			c-1.78,2.02-3.33,4.18-4.89,6.19c-1.78,2.02-3.56,4.03-5.34,6.19c-2,2.02-3.78,4.03-5.78,6.05c-2,1.87-4,3.74-6.22,5.62l-2.89,2.3
			l-1.56,1.15c-0.22,0.14-0.44,0.43-0.67,0.58l-1.11,0.72c-1.33,0.86-2.89,1.73-4.22,2.59l-1.11,0.72l-0.44,0.29l-2,0.86
			c-1.33,0.58-2.67,1.3-4,1.87c-1.33,0.58-2.89,1.15-4.22,1.73c-2.67,1.15-5.78,2.02-8.67,3.02c-2.89,1.01-6,1.58-8.89,2.45
			c-3.11,0.58-6,1.3-9.11,1.73c-3.11,0.43-6,1.01-8.89,1.3c-2.89,0.43-5.78,0.72-8.67,1.01c-5.56,0.58-10.89,0.86-15.56,1.15
			c-4.67,0.14-8.89,0.29-12.45,0.43c-3.56,0-6.22,0-8.22,0c-2,0-2.89,0-2.89,0s0.89,0.29,2.67,0.86c1.78,0.58,4.22,1.44,7.56,2.3
			c3.33,0.86,7.34,1.87,12.23,2.74s10.45,1.73,16.67,2.16c6.22,0.58,13.12,0.72,20.45,0.43c3.78-0.14,7.56-0.58,11.34-0.86
			c2-0.29,3.78-0.58,5.78-0.86s4-0.58,6-1.01c4-0.86,8-1.73,11.78-3.02c2-0.58,4-1.15,5.78-1.87c1.78-0.72,3.78-1.58,5.56-2.45
			l2.89-1.15l0.44-0.14l0.89-0.58l0.44-0.29l1.11-0.58c1.56-0.86,2.89-1.73,4.45-2.59c1.33-0.72,3.11-2.16,4.67-3.17l4.67-3.6
			c2.67-2.3,4.89-4.61,7.34-6.91c2.22-2.3,4.22-4.75,6-7.2c1.78-2.45,3.56-4.75,5.11-7.2c1.56-2.45,2.89-4.75,4.22-7.2
			c2.45-4.75,4.67-9.36,6.22-13.83c1.56-4.46,2.89-8.64,3.78-12.53c0.89-3.89,1.56-7.49,2-10.66c0.44-3.17,0.44-6.05,0.67-8.35
			c0.22-2.3,0-4.18,0-5.33C1557.02,614.11,1556.8,613.54,1556.8,613.54z"/>
		<path d="M1335.61,675.76c-2.67-3.6-5.78-7.2-8.67-10.8l-4.67-5.47c-1.56-1.87-3.33-3.6-4.89-5.18l-2.45-2.59
			c-1.33-1.15-2.22-1.87-3.56-2.88c-2.45-1.73-4.89-3.31-7.78-4.75c-5.56-2.88-11.78-5.18-18.01-6.91
			c-6.45-1.73-12.89-3.02-19.56-3.89c-1.33-0.14-2.67-0.29-3.78-0.43c1.11-1.73,2-3.31,2.67-5.04c2.45-4.9,3.56-9.94,4.45-14.98
			c0.89-5.04,0.89-9.94,0.44-14.98c-0.44-4.9-1.56-9.79-2.67-14.69c-1.33-4.75-3.11-9.51-5.34-14.26c-2-4.61-4.67-9.22-7.34-13.68
			l-4.22-6.63l-4.67-6.48l-5.11-6.34c-1.78-2.16-3.56-4.18-5.56-6.34c-1.78-2.16-3.78-4.03-5.56-5.9c-1.78-1.87-4.22-4.18-6.45-6.34
			c-4.67-4.18-10.23-7.78-16.23-10.95c-11.78-6.48-24.68-11.23-38.01-15.27c-13.34-4.03-27.12-7.06-41.13-9.51
			c-6.89-1.15-14.01-2.3-21.12-3.17c-7.11-0.86-14.23-1.58-21.34-2.02c13.56,3.02,26.68,6.48,39.57,10.23
			c12.89,3.74,25.34,7.92,37.12,12.67c11.78,4.75,22.9,9.94,32.01,15.99c4.67,3.02,8.67,6.19,12,9.65c1.56,1.73,2.89,3.31,4.67,5.47
			c1.56,2.02,3.33,4.18,4.67,6.19c2.89,4.03,5.78,8.07,8.45,12.1c2.67,4.18,5.11,8.21,7.56,12.39c2.22,4.18,4.45,8.35,6.22,12.53
			c2,4.18,3.33,8.5,4.67,12.67c1.33,4.18,2.22,8.5,2.67,12.67c0.67,4.18,0.67,8.5,0.44,12.67c-0.22,4.18-1.11,8.35-2.45,12.24
			c-0.67,2.02-1.33,4.03-2.45,5.76c-6,8.5-17.34,16.99-17.34,16.99l23.12-1.44c2.22-0.14,5.34-0.14,8,0
			c2.89,0.14,5.56,0.29,8.45,0.43c5.56,0.43,11.12,1.3,16.23,2.3c5.11,1.15,10.23,2.59,14.45,4.61c2.22,1.01,4.22,2.02,6.22,3.17
			c0.89,0.58,2,1.3,2.67,1.73l3.11,2.3c2,1.58,4.22,3.02,6,4.61l5.56,4.61l11.34,9.51l11.34,9.65c3.78,3.17,7.56,6.48,11.34,9.65
			c-2.22-3.74-4.67-7.49-7.34-11.23C1340.94,683.1,1338.28,679.36,1335.61,675.76z"/>
	</g>
	<path d="M1160.66,673.88c-0.67-4.75-0.89-9.51-1.78-14.4l-1.11-7.2l-1.33-7.2c-0.89-4.75-2.22-9.51-3.33-14.26
		c-1.33-4.75-2.89-9.51-4.45-14.11c-1.78-4.75-3.33-9.36-5.56-13.97l-3.11-6.91l-3.56-6.91c-2.22-4.61-4.89-9.07-7.56-13.68
		c-2.67-4.46-5.78-9.07-8.89-13.54l-19.12-25.06c-1.56-2.02-3.33-4.03-4.45-6.19l-4-6.34c-2.67-4.32-5.56-8.5-8-12.82l-6.89-12.96
		c-0.67-1.15-1.11-2.16-1.78-3.31l-1.33-3.31l-2.67-6.63l-2.67-6.63l-2-6.77c-1.33-4.46-2.89-9.07-3.56-13.54
		c-0.89-4.61-2.22-9.07-2.45-13.68c-0.44-4.61-1.11-9.22-0.89-13.83v-6.91l0.67-6.91l0.22-3.46c0.22-1.15,0.44-2.3,0.67-3.46
		c0.44-2.3,0.89-4.61,1.33-6.91c2.22-9.22,5.34-18.29,11.12-26.93c-3.78,4.03-6.67,8.35-9.56,12.82c-1.33,2.16-2.67,4.46-3.78,6.63
		l-3.11,6.77c-0.89,2.3-1.78,4.61-2.45,6.91c-0.44,1.15-0.89,2.3-1.11,3.46l-0.89,3.46l-1.78,7.06l-1.11,7.06
		c-0.89,4.75-0.89,9.51-1.11,14.26c-0.44,4.75,0.22,9.51,0.44,14.4c0.22,2.45,0.22,4.75,0.67,7.2l1.33,7.2l1.33,7.2l2,7.06
		l2.22,7.06l1.11,3.6c0.44,1.15,0.89,2.3,1.33,3.46l5.78,13.97c2,4.61,4.89,9.07,7.11,13.54l3.78,6.77c1.11,2.3,2.89,4.46,4.22,6.63
		l17.34,26.07c2.45,4.32,5.11,8.21,7.34,12.53s4.67,8.64,6.45,12.96l2.89,6.48l2.45,6.63c1.78,4.46,3.11,8.93,4.67,13.39
		c1.33,4.46,2.45,8.93,3.56,13.54c0.89,4.61,2.22,9.07,2.89,13.54l1.11,6.77l0.89,6.91c0.67,4.61,0.89,9.07,1.33,13.68
		c0.67,9.22,1.11,18.29,0.67,27.51c-0.44,18.43-2.22,36.73-5.78,55.02c-0.67,4.18-1.56,8.35-2.45,12.39
		c-6.45-24.77-27.57-49.4-27.57-49.4s2.89,34.71-2.22,56.6c-6.45,28.08-38.24,65.67-41.13,68.84c-1.56,1.58-2.89,3.17-4.45,4.61
		l-4.89,4.61c-3.33,3.02-6.22,6.19-9.56,9.22l-10,9.07c-3.33,3.02-6.89,5.9-10.45,8.93c-3.33,3.02-7.11,5.9-10.45,8.79L992.37,900
		c4.22-2.59,8.45-5.04,12.45-7.78c4-2.59,8.23-5.18,12.23-7.92c4-2.74,8-5.47,11.78-8.21l11.56-8.35c4-2.74,7.56-5.76,11.12-8.64
		l5.56-4.32c1.78-1.44,3.56-3.02,5.34-4.61c3.56-3.02,7.11-6.19,10.45-9.22l9.34-9.51l2.22-2.3l0.22-0.14l0.22-0.29l0.22-0.29
		l0.44-0.72l1.11-1.3c1.33-1.73,2.89-3.46,4-5.33l3.56-5.33c1.11-1.87,2-3.6,3.11-5.47c1.11-1.87,2-3.6,2.67-5.47
		c0.89-1.87,1.78-3.74,2.45-5.62l2.22-5.62l0.22-0.72l6.67,23.19l10.89,37.45l15.56-36.87c4-9.65,7.11-18.72,9.78-28.23
		c2.67-9.36,5.11-18.87,6.89-28.23c1.78-9.51,3.33-19.01,4.45-28.52c0.67-4.75,0.89-9.51,1.33-14.26c0.22-4.75,0.44-9.51,0.44-14.4
		C1161.99,693.04,1161.55,683.53,1160.66,673.88z"/>
	<path d="M935.46,744.89c1.78-3.74,3.56-7.35,5.11-11.09l2.45-5.62l2.22-5.62c1.56-3.74,2.67-7.49,3.78-11.23s2-7.63,2.89-11.38
		c0.67-3.89,1.78-7.63,2.22-11.52l0.89-5.76l0.44-5.76c0.44-3.89,0.44-7.78,0.44-11.67c0-3.89-0.22-7.92-0.67-11.81l-3.11-22.32
		c-0.22-1.87-0.67-3.6-0.67-5.47l-0.22-5.47c0-3.6-0.44-7.35-0.22-11.09l0.67-11.09c0-0.86,0-1.87,0.22-2.74l0.44-2.74l0.89-5.47
		l0.89-5.47l1.56-5.47c0.89-3.6,1.78-7.2,3.33-10.8c1.33-3.6,2.45-7.2,4.22-10.66c1.78-3.46,3.33-7.06,5.56-10.51l3.11-5.18
		l3.56-5.04l1.78-2.59c0.67-0.86,1.33-1.58,2-2.45c1.33-1.58,2.67-3.31,4-4.9c5.78-6.48,12.23-12.67,20.23-18.15
		c-4.67,2.3-8.67,5.04-12.67,7.78c-2,1.44-4,2.88-5.78,4.32l-5.34,4.46c-1.78,1.58-3.33,3.17-4.89,4.75
		c-0.89,0.86-1.78,1.58-2.45,2.45l-2.22,2.45l-4.45,4.9l-4,5.18c-2.67,3.46-4.89,6.91-7.11,10.51c-2.45,3.46-4,7.2-6,10.8
		c-0.89,1.87-2,3.6-2.67,5.47l-2.22,5.62l-2.22,5.62l-1.56,5.62l-1.56,5.62l-0.67,2.88c-0.22,1.01-0.22,1.87-0.44,2.88l-1.78,11.52
		c-0.44,3.89-0.44,7.63-0.67,11.52l-0.22,5.76c-0.22,1.87,0.22,3.89,0.22,5.76l1.33,22.61c0,3.6,0.22,7.2,0,10.8
		c-0.22,3.6-0.44,7.35-0.89,10.95l-0.67,5.47l-1.11,5.47c-0.67,3.6-1.56,7.2-2.45,10.8c-0.89,3.6-2.22,7.2-3.33,10.8
		c-1.33,3.6-2.45,7.2-4,10.66l-2.22,5.33l-2.45,5.33c-1.56,3.6-3.33,7.06-5.11,10.51c-3.56,6.91-7.34,13.97-11.78,20.74
		c-8.45,13.68-18.01,27.08-28.68,40.18c-2.45,3.02-4.89,5.9-7.34,8.79c6.22-19.73,1.33-42.05,1.33-42.05s-13.12,26.5-26.68,41.91
		c-17.34,19.73-57.8,42.05-61.36,43.78c-1.78,0.86-3.56,1.87-5.34,2.59l-5.56,2.59c-3.78,1.73-7.34,3.46-11.34,5.04l-11.56,4.9
		c-3.78,1.58-7.78,3.17-11.78,4.75c-3.78,1.58-7.78,3.02-11.78,4.61l-12,4.46c4.22-1.15,8.67-2.3,12.89-3.46
		c4.22-1.3,8.45-2.3,12.67-3.6c4.22-1.3,8.45-2.59,12.45-3.89l12.45-4.18c4.22-1.3,8.23-2.88,12.23-4.32l6-2.3c2-0.72,4-1.58,6-2.45
		c4-1.58,8-3.31,12-5.04l11.12-5.33l2.67-1.3l0.22-0.14l0.44-0.14l0.44-0.14l0.67-0.43l1.33-0.72c1.78-1.01,3.56-2.02,5.34-3.17
		l5.11-3.31c1.56-1.15,3.11-2.3,4.67-3.46c1.56-1.15,3.11-2.45,4.45-3.6c1.33-1.3,2.89-2.45,4.22-3.74l4.22-3.74l0.44-0.43
		l-5.34,18.58l-8.45,29.96l28.01-24.63c7.34-6.48,13.56-12.67,19.78-19.3c6.22-6.48,12-13.11,17.78-19.88
		c5.56-6.77,10.89-13.54,16.01-20.45c2.45-3.46,4.89-6.91,7.34-10.51c2.22-3.6,4.67-7.06,6.67-10.66
		C927.91,759.43,931.69,752.23,935.46,744.89z"/>
	<g>
		<path d="M1302.26,125.88c-0.22-3.89-0.67-7.92-1.33-11.81c-0.44-3.89-1.56-7.78-2.45-11.81c-1.11-3.89-2.22-7.78-3.56-11.67
			c-0.67-1.87-1.56-3.89-2.22-5.76c-0.67-1.87-1.56-3.89-2.45-5.76c-1.78-3.74-3.78-7.49-6-11.23c-2.22-3.74-4.45-7.35-7.56-11.23
			l-10-12.82l-4.89,14.4c-0.89,2.59-2,5.47-3.11,8.21c-1.11,2.74-2.45,5.62-3.56,8.35c-2.45,5.47-5.34,10.95-8.23,16.42
			c-2.89,5.47-6.22,10.8-9.56,16.13c-3.56,5.33-6.89,10.51-10.89,15.7l-1.33,2.02l-1.33,1.73l-3.11,3.89l-3.11,3.89l-3.33,3.74
			c-2.22,2.45-4.22,4.9-6.67,7.35l-7.11,7.35l-7.34,7.35c-1.56,1.73-3.33,3.31-5.11,5.04c-0.44-1.73-0.67-3.31-1.11-5.04
			c-2-8.35-4.22-16.56-7.11-24.92c-1.33-4.18-2.89-8.35-4.45-12.39l-2.45-6.19l-2.67-6.19c-2-4.18-4-8.21-6.45-12.39l-0.89-1.58
			l-0.44-0.86l-0.44-0.72l-2-2.88c-1.11-1.87-2.89-4.03-4.22-6.05c-2.89-4.03-6.22-7.78-9.56-11.67
			c-3.56-3.74-7.11-7.49-11.12-11.09c-7.78-7.2-16.45-13.97-25.79-20.16c-9.34-6.34-19.56-12.1-30.23-17.43
			c-5.34-2.59-10.89-5.18-16.67-7.49c-2.89-1.15-5.78-2.3-8.67-3.46l-4.45-1.58c-1.56-0.58-2.89-1.01-5.11-1.58L1006.16,0
			l19.78,24.34c2,2.3,4,5.04,6,7.63s3.78,5.33,5.78,7.92c3.78,5.33,7.11,10.8,10.45,16.27c1.78,2.74,3.33,5.47,4.89,8.21
			c1.56,2.74,2.89,5.47,4.45,8.35l4,8.35c1.11,2.74,2.67,5.62,3.78,8.35c1.11,2.88,2.45,5.62,3.33,8.5l1.56,4.18l0.44,1.01
			l0.22,1.01l0.67,2.16c0.89,2.88,1.33,5.33,2,8.35c0.67,2.88,1.11,5.76,1.33,8.64c0,0.14,0,0.29,0,0.43
			c-1.56-1.3-3.11-2.45-4.89-3.74c-13.78-10.37-29.79-19.44-47.13-27.22s-36.01-14.11-55.35-19.01
			c-19.34-5.04-39.35-8.64-59.8-11.09c-20.23-2.45-40.9-3.74-61.36-4.18c-20.45-0.43-40.9,0-61.13,1.3
			c-5.11,0.29-10,0.58-15.12,1.01l-3.78,0.29l-3.78,0.29l-7.34,0.58c-4.89,0.43-10.23,1.01-15.12,1.58
			c-4.89,0.58-10,1.15-14.89,1.87c-19.78,2.59-39.57,5.76-58.91,9.51c-38.68,7.63-76.25,16.99-112.48,28.23
			c-36.24,11.09-71.36,23.62-105.37,37.3c-16.89,6.91-33.57,13.97-50.02,21.32c-16.45,7.35-32.68,14.83-48.46,22.76
			c-31.57,15.7-62.24,32.26-90.92,50.12c15.34-8.21,31.12-15.99,47.13-23.62c16.01-7.63,32.23-15.12,48.68-22.18
			c32.9-14.4,66.47-27.94,100.93-40.33c17.34-6.19,34.68-12.24,52.24-18c17.78-5.62,35.57-11.09,53.57-15.99
			c36.24-9.94,73.14-18.72,110.93-25.35c18.9-3.31,38.01-6.05,57.13-8.21c4.89-0.58,9.56-1.01,14.45-1.58
			c4.89-0.43,9.56-0.86,14.23-1.3l7.34-0.58l3.56-0.29l3.56-0.29c4.89-0.29,9.78-0.58,14.45-0.86c19.34-0.86,38.68-1.15,58.02-0.58
			c19.34,0.58,38.46,2.02,57.13,4.46c37.35,4.9,73.36,13.83,104.04,27.8c15.34,6.91,29.34,15.12,41.57,24.2
			c6,4.61,11.56,9.36,16.67,14.4c2.45,2.45,4.89,5.04,6.89,7.63c1.11,1.3,2,2.59,3.11,3.89l1.33,1.87c0.44,0.58,0.89,1.44,1.11,1.73
			l26.45,46.09l1.78-49.11c0.22-3.17,0-6.19,0-9.36c0-3.02-0.22-6.19-0.44-9.22c-0.44-6.19-0.89-12.39-1.78-18.58
			c-0.44-3.17-0.89-6.19-1.56-9.36c-0.67-3.02-1.56-6.48-2.22-9.51l-0.67-2.16l-0.44-1.3l-0.44-1.15l-1.56-4.61
			c-1.11-3.02-2.45-6.05-3.56-9.07c-1.11-3.02-2.67-5.9-4-8.93l-4.45-8.79c-1.56-2.88-3.11-5.9-4.67-8.79
			c-1.56-2.88-3.33-5.76-5.11-8.64c-0.89-1.44-1.78-2.88-2.67-4.32c6.22,3.46,12.45,6.91,18.23,10.66
			c8.45,5.62,16.45,11.52,23.56,17.86c3.56,3.17,6.89,6.48,10,9.79c3.11,3.31,6,6.77,8.67,10.23c1.33,1.73,2.67,3.31,3.78,5.33
			l2,2.88l0.44,0.72l0.22,0.58l0.89,1.3c2.22,3.6,4.22,7.35,6.22,11.09l2.67,5.76l2.45,5.76c1.56,3.89,3.11,7.78,4.45,11.81
			c2.89,7.92,5.34,15.99,7.56,24.05l3.11,12.1c0.89,4.03,2,8.07,2.67,12.1l4.22,20.6l17.12-17.14l7.56-7.49l7.34-7.49
			c2.45-2.59,4.89-5.04,7.11-7.63l7.11-7.63l6.89-7.78c2.22-2.59,4.45-5.33,6.67-7.92l3.33-4.03l2.89-4.03l2.89-4.03l1.56-2.16
			l1.33-2.02c3.78-5.47,7.34-11.09,10.45-16.71c3.11-5.62,6.22-11.23,8.89-16.99c2.67-5.76,5.34-11.38,7.56-17.28
			c0.22-0.72,0.67-1.58,0.89-2.3c1.33,2.16,2.67,4.32,3.78,6.63c2,3.6,3.78,7.06,5.34,10.8c1.56,3.6,2.89,7.35,4.22,10.95
			c1.11,3.74,2.45,7.35,3.11,11.09c0.89,3.74,1.56,7.49,2,11.23c0.44,1.87,0.44,3.74,0.44,5.62c0,1.87,0.44,3.74,0.44,5.62v5.76
			v1.44v0.58v0.72l-0.22,2.88c-0.44,3.74-0.89,7.49-1.78,11.23c-0.89,3.74-2,7.49-3.33,11.23c-1.33,3.74-2.89,7.35-4.67,10.95
			c-1.78,3.6-3.78,7.2-6,10.8c-4.45,7.06-9.34,14.11-15.12,20.88c-5.78,6.77-12,13.25-19.12,19.44c8-5.76,14.89-12.1,21.34-18.58
			c6.45-6.48,12.45-13.25,17.56-20.45c10.23-14.11,17.56-29.24,20.23-45.08l0.44-3.02l0.22-0.72v-0.86l0.22-1.44l0.44-5.76
			C1302.26,133.94,1302.49,129.91,1302.26,125.88z"/>
		<path d="M801.19,277.53c1.33-6.05,4-11.38,9.11-15.55c4.89-4.18,12-7.2,20.45-9.36c8.45-2.02,17.56-3.17,26.45-3.6
			c8.89-0.58,17.78-0.58,26.01-0.29c8.23,0.14,15.78,0.72,22.45,1.15c6.67,0.43,12.67,1.01,17.56,1.44
			c9.78,0.86,15.34,1.58,15.34,1.58s-4.89-2.02-14.01-4.75c-9.11-2.74-22.23-6.34-39.35-8.93c-8.45-1.3-17.78-2.45-28.23-2.88
			c-10.23-0.43-21.56-0.29-33.35,1.73c-11.78,1.87-24.23,5.9-33.79,12.67c-4.67,3.31-8.45,7.2-11.34,11.38
			c-2.89,4.03-4.45,8.35-5.56,12.53c-0.67,2.16-0.89,4.18-1.11,6.19c-0.22,2.02-0.22,4.18-0.44,5.9c-0.22,3.46-0.22,7.49,0,11.23
			c0.44,7.49,1.56,14.69,3.33,21.75c1.78,7.06,4.22,13.68,7.11,20.02c2.89,6.19,6.22,11.95,9.78,17.14
			c3.56,5.18,7.34,9.79,11.12,13.68c3.78,3.89,7.34,7.2,10.67,9.65c3.11,2.59,6,4.46,8,5.62c2,1.3,3.11,1.73,3.11,1.73
			s-0.44-0.86-1.56-2.45c-0.89-1.58-2.22-4.03-3.78-7.06c-2.89-6.05-6.67-14.69-9.78-25.06c-3.11-10.37-6-22.47-7.56-35.57
			c-0.89-6.48-1.33-13.25-1.56-20.16c0-3.46-0.22-6.63-0.22-10.37c0-1.87,0-3.31,0.22-4.9
			C800.75,280.56,800.97,278.97,801.19,277.53z"/>
		<path d="M932.35,283.29c-5.56-1.87-14.01-4.32-24.9-5.9c-5.56-0.72-11.78-1.3-18.67-1.01c-6.89,0.29-14.89,1.3-22.23,4.75
			c-7.56,3.31-12.67,9.07-14.67,14.55c-0.44,1.3-0.89,2.74-1.11,4.18l-0.22,2.02l-0.22,1.01l0,0v0.58v0.14v0.14v0.43l0.22,3.46v1.73
			v0.86l0.22,1.01l1.11,4.03c0.44,1.3,0.67,2.74,1.33,3.89c1.11,2.45,2.22,4.9,3.78,7.06c2.89,4.61,6.45,8.79,10.45,12.53
			c2,1.87,4,3.74,6,5.47c2.22,1.58,4.22,3.31,6.45,4.75c2.22,1.44,4.22,2.88,6.45,4.32c2.22,1.3,4.22,2.59,6.45,3.74
			c4.22,2.3,8.23,4.18,11.78,5.9c3.56,1.58,6.89,2.88,9.78,3.89c2.67,1.01,4.89,1.73,6.45,2.16c1.56,0.43,2.45,0.72,2.45,0.72
			s-2.22-1.87-6-5.04c-2-1.58-4.22-3.6-6.67-5.76s-5.34-4.75-8.23-7.49c-1.33-1.44-2.89-2.74-4.45-4.32
			c-1.56-1.44-3.11-3.02-4.67-4.61c-1.56-1.58-2.89-3.31-4.45-4.9c-1.56-1.73-2.89-3.46-4.22-5.18c-1.56-1.73-2.67-3.6-4-5.47
			c-0.67-0.86-1.11-1.87-1.78-2.74c-0.44-1.01-1.11-1.87-1.56-2.88c-1.11-1.87-1.56-3.89-2.67-5.76c-0.44-1.01-0.67-1.87-0.89-2.74
			l-0.67-2.74l-0.22-0.72v-0.86l-0.22-1.73l-0.22-3.46v-0.43l0,0v-0.58v-1.3c0-0.86,0.22-1.73,0.44-2.59
			c0.89-3.17,2.67-5.76,5.78-7.63c3.11-1.87,7.78-3.31,12.67-4.03c4.89-0.86,10.23-1.15,15.34-1.3c10-0.29,18.67,0.14,24.9,0.43
			c3.11,0.14,5.56,0.29,7.11,0.43c1.78,0.14,2.67,0.14,2.67,0.14s-0.67-0.29-2.22-0.86C937.47,285.17,935.24,284.3,932.35,283.29z"
			/>
	</g>
	<path d="M459.74,186.94c0,0,8.67-3.89,24.68-10.08c8-3.02,17.56-6.77,28.9-10.8c11.34-4.03,24.01-8.5,38.24-13.11
		c14.23-4.61,29.79-9.51,46.46-14.11c16.67-4.75,34.46-9.51,53.13-13.83c18.67-4.32,38.24-8.64,58.69-12.1
		c20.23-3.46,41.35-6.48,62.47-8.64c21.34-1.87,43.13-3.02,64.69-2.16c2.67,0.14,5.34,0.29,8,0.29c2.67,0.14,5.34,0.43,8,0.58
		c2.67,0.29,5.34,0.43,8,0.72c2.67,0.29,5.11,0.72,7.78,1.01c2.45,0.29,4.89,0.58,7.56,1.01c2.67,0.43,5.11,0.86,7.78,1.3
		c5.11,0.72,10,1.87,14.89,2.74c19.56,3.89,37.35,9.65,53.35,16.13c8,3.17,15.34,6.63,22.23,10.23c6.67,3.6,13.12,7.35,18.67,11.09
		c11.34,7.49,20.23,15.12,27.34,22.32c7.11,7.06,12.23,13.68,16.23,19.16c3.78,5.47,6.22,9.94,7.78,13.11c1.56,3.02,2,4.75,2,4.75
		s-0.89-1.58-3.11-4.46c-2-2.88-5.56-7.06-10.23-12.1c-4.67-5.04-10.89-11.09-18.9-17.43c-8-6.34-17.56-13.11-29.12-19.73
		c-11.56-6.48-25.12-12.96-40.46-18.43c-15.34-5.47-32.46-10.08-50.68-13.54c-4.67-0.72-9.34-1.73-13.78-2.3
		c-2.22-0.29-4.67-0.72-6.89-1.01c-2.45-0.29-4.89-0.58-7.34-0.86c-2.45-0.29-4.89-0.58-7.34-0.72c-2.45-0.14-4.89-0.29-7.34-0.43
		c-2.45-0.14-4.89-0.43-7.34-0.43l-7.34-0.29c-19.78-0.43-40.46,0.43-60.69,2.45c-20.45,1.87-40.68,4.61-60.47,7.92
		c-19.78,3.31-39.35,6.77-57.8,10.8c-18.67,4.03-36.46,7.92-53.35,11.95s-32.68,8.07-47.35,11.95
		c-14.67,3.89-28.01,7.49-39.79,10.66c-11.78,3.31-22.01,6.19-30.46,8.64c-8.45,2.45-15.12,4.32-19.56,5.62
		C462.18,186.22,459.74,186.94,459.74,186.94z"/>
</g>
<path d="M1615.66,199.79"/>
</svg>
