<?xml version="1.0" encoding="utf-8"?>
<!-- Generator: Adobe Illustrator 26.5.0, SVG Export Plug-In . SVG Version: 6.00 Build 0)  -->
<svg version="1.1" id="Layer_1" xmlns="http://www.w3.org/2000/svg" xmlns:xlink="http://www.w3.org/1999/xlink" x="0px" y="0px"
	 viewBox="0 0 1900 900" style="enable-background:new 0 0 1900 900;" xml:space="preserve">
<g>
	<g>
		<path d="M1622.81,387.26l29.72,8.53l-12.21-18.83c-2.3-3.68-4.84-7.06-7.37-10.59c-2.53-3.53-5.07-6.92-7.83-10.3
			c-2.76-3.38-5.3-6.77-8.06-10.15c-2.76-3.38-5.53-6.77-8.52-10c-3-3.24-5.99-6.77-8.99-9.86l-9.45-9.42
			c-3.46-3.38-6.91-6.33-10.37-9.56c-3.69-3.09-7.37-6.18-11.06-9.12c-3.92-2.94-7.6-5.89-11.75-8.68
			c-4.15-2.8-8.06-5.59-12.44-8.24c-4.15-2.65-8.29-5.44-12.67-7.95c-4.38-2.65-8.76-5-13.36-7.5c-4.61-2.5-8.99-4.86-13.59-7.21
			c-4.61-2.35-9.45-4.56-14.05-6.77c-4.84-2.21-9.68-4.41-14.52-6.47c-4.84-2.06-9.91-4.12-14.98-5.89
			c8.76,5,17.28,10.15,25.57,15.45c4.15,2.65,8.06,5.3,12.21,7.94c4.15,2.65,8.06,5.44,11.98,8.09c3.92,2.8,7.83,5.59,11.52,8.39
			c3.92,2.8,7.6,5.59,11.06,8.53c3.69,2.8,7.14,5.89,10.6,8.68c3.46,2.94,6.68,6.03,10.14,8.97c3.23,2.94,6.22,6.03,9.45,9.12
			c2.76,3.09,5.99,6.33,8.52,9.27l8.29,9.86c2.76,3.24,5.3,6.47,7.83,9.71c2.76,3.24,5.07,6.62,7.6,9.86
			c2.53,3.24,4.84,6.62,7.37,10c0.69,0.88,1.38,1.91,2.07,2.8c-1.38-0.29-2.76-0.59-4.15-0.74c-3.69-0.74-7.37-1.32-11.06-1.91
			c-3.69-0.59-7.37-1.32-11.06-1.77l-11.29-1.47c-3.69-0.59-7.6-0.88-11.29-1.18l-11.29-1.03l-1.38-0.15l-1.61-0.15l-2.76-0.15
			l-5.53-0.44l-11.52-0.59c-3.92-0.15-7.6-0.29-11.52-0.29c-3.92,0-7.6,0-11.52,0c-3.92,0-7.6,0.15-11.52,0.29
			c-3.92,0.15-7.83,0.29-11.52,0.59c-3.92,0.29-7.83,0.59-11.75,1.03c-1.84,0.15-3.92,0.44-5.99,0.74
			c-2.07,0.29-3.69,0.59-6.45,1.03l-43.32,8.53l44.01,5.3c3.23,0.44,6.91,0.88,10.37,1.47c3.46,0.59,7.14,1.18,10.6,1.91
			c6.91,1.47,13.82,3.09,20.51,4.86c3.46,0.88,6.68,1.91,9.91,2.94c3.23,1.03,6.45,2.06,9.68,3.24c6.22,2.35,12.21,4.86,17.74,7.95
			c1.38,0.74,2.76,1.47,3.92,2.35l0.92,0.59l0.23,0.15h0.23l-0.23-0.15l0.46,0.29l2.07,1.32c1.15,0.88,2.76,1.77,3.92,2.65
			l3.46,2.65c1.15,0.88,2.07,1.91,3.23,2.8c1.15,0.88,2.07,1.91,3,2.94c2.07,1.91,3.92,3.97,5.53,6.18
			c1.61,2.06,3.46,4.27,4.84,6.47c1.61,2.21,3,4.41,4.15,6.77c2.53,4.56,4.61,9.27,5.99,14.12c0.23-2.5,0-4.86-0.23-7.36
			c-0.46-2.5-0.69-5-1.38-7.36c-0.69-2.5-1.38-4.86-2.53-7.36c-0.92-2.5-2.07-4.86-3.46-7.21c-1.38-2.35-2.76-4.71-4.61-7.06
			c-0.69-1.18-1.61-2.35-2.76-3.38c-0.92-1.18-1.84-2.21-3-3.38l-3.23-3.38c-1.15-1.18-2.3-2.06-3.46-3.09l-1.61-1.47l-0.46-0.44
			l-0.69-0.44l-0.92-0.74c-1.38-1.03-2.76-1.91-4.15-2.94c-5.53-3.83-11.75-7.21-18.43-10.15c-5.76-2.65-11.98-5.15-18.2-7.36
			c1.61,0,3.46,0.15,5.07,0.15c3.46,0.15,7.14,0.29,10.6,0.44l10.37,0.74l10.83,0.88l10.6,1.03c3.46,0.44,7.14,0.74,10.6,1.18
			l10.37,1.32c3.46,0.44,6.91,1.03,10.37,1.62c3.46,0.59,6.91,1.03,10.37,1.77c3.46,0.59,6.91,1.18,10.14,1.91s6.68,1.32,9.91,2.21
			C1616.82,385.64,1620.27,386.52,1622.81,387.26z"/>
		<path d="M1704.71,445.36c-44.47-23.83-82.02-36.49-82.02-36.49s152.3,102.55,140.55,115.35c-11.98,12.8-58.98-1.62-58.98-1.62
			s7.6,20.89,26.27,27.95c15.21,5.89,43.78,10.74,43.32,16.04c-0.69,5.15-13.13,7.94-13.13,7.94s3.69,11.62,16.36,11.18
			c12.44-0.44,41.93-34.43,41.47-58.41C1817.84,514.52,1757.01,473.61,1704.71,445.36z"/>
		<path d="M1772.11,607.36c0,0-0.46,0.59-1.38,1.77c-0.69,1.18-2.07,2.8-3.46,4.86c-1.38,2.06-3.23,4.71-5.3,7.65
			c-2.07,2.94-4.38,6.18-6.91,9.71c-1.15,1.77-2.53,3.68-3.92,5.59c-1.38,1.91-2.53,3.83-4.15,5.89c-2.76,3.97-5.99,8.09-9.22,12.36
			c-1.84,2.06-3.46,4.27-5.07,6.33c-1.84,2.06-3.69,4.12-5.53,6.33c-2.07,2.06-3.92,4.12-5.99,6.18c-2.07,1.91-4.15,3.83-6.45,5.74
			l-3,2.35l-1.61,1.18c-0.23,0.15-0.46,0.44-0.69,0.59l-1.15,0.74c-1.38,0.88-3,1.77-4.38,2.65l-1.15,0.74l-0.46,0.29l-2.07,0.88
			c-1.38,0.59-2.76,1.32-4.15,1.91c-1.38,0.59-3,1.18-4.38,1.77c-2.76,1.18-5.99,2.06-8.99,3.09c-3,1.03-6.22,1.62-9.22,2.5
			c-3.23,0.59-6.22,1.32-9.45,1.77c-3.23,0.44-6.22,1.03-9.22,1.32c-3,0.44-5.99,0.74-8.99,1.03c-5.76,0.59-11.29,0.88-16.13,1.18
			c-4.84,0.15-9.22,0.29-12.9,0.44c-3.69,0-6.45,0-8.52,0c-2.07,0-3,0-3,0s0.92,0.29,2.76,0.88c1.84,0.59,4.38,1.47,7.83,2.35
			c3.46,0.88,7.6,1.91,12.67,2.8c5.07,0.88,10.83,1.77,17.28,2.21c6.45,0.59,13.59,0.74,21.2,0.44c3.92-0.15,7.83-0.59,11.75-0.88
			c2.07-0.29,3.92-0.59,5.99-0.88c2.07-0.29,4.15-0.59,6.22-1.03c4.15-0.88,8.29-1.77,12.21-3.09c2.07-0.59,4.15-1.18,5.99-1.91
			c1.84-0.74,3.92-1.62,5.76-2.5l3-1.18l0.46-0.15l0.92-0.59l0.46-0.29l1.15-0.59c1.61-0.88,3-1.77,4.61-2.65
			c1.38-0.74,3.23-2.21,4.84-3.24l4.84-3.68c2.76-2.35,5.07-4.71,7.6-7.06c2.3-2.35,4.38-4.86,6.22-7.36
			c1.84-2.5,3.69-4.86,5.3-7.36c1.61-2.5,3-4.86,4.38-7.36c2.53-4.86,4.84-9.56,6.45-14.12c1.61-4.56,3-8.83,3.92-12.8
			c0.92-3.97,1.61-7.65,2.07-10.89c0.46-3.24,0.46-6.18,0.69-8.53c0.23-2.35,0-4.27,0-5.44
			C1772.34,607.95,1772.11,607.36,1772.11,607.36z"/>
		<path d="M1542.86,670.92c-2.76-3.68-5.99-7.36-8.99-11.03l-4.84-5.59c-1.61-1.91-3.46-3.68-5.07-5.3l-2.53-2.65
			c-1.38-1.18-2.3-1.91-3.69-2.94c-2.53-1.77-5.07-3.38-8.06-4.86c-5.76-2.94-12.21-5.3-18.66-7.06
			c-6.68-1.77-13.36-3.09-20.28-3.97c-1.38-0.15-2.76-0.29-3.92-0.44c1.15-1.77,2.07-3.38,2.76-5.15c2.53-5,3.69-10.15,4.61-15.3
			c0.92-5.15,0.92-10.15,0.46-15.3c-0.46-5-1.61-10-2.76-15.01c-1.38-4.86-3.23-9.71-5.53-14.57c-2.07-4.71-4.84-9.42-7.6-13.98
			l-4.38-6.77l-4.84-6.62l-5.3-6.47c-1.84-2.21-3.69-4.27-5.76-6.47c-1.84-2.21-3.92-4.12-5.76-6.03c-1.84-1.91-4.38-4.27-6.68-6.47
			c-4.84-4.27-10.6-7.94-16.82-11.18c-12.21-6.62-25.58-11.48-39.4-15.6c-13.82-4.12-28.11-7.21-42.62-9.71
			c-7.14-1.18-14.52-2.35-21.89-3.24c-7.37-0.88-14.75-1.62-22.12-2.06c14.05,3.09,27.65,6.62,41.01,10.45
			c13.36,3.83,26.27,8.09,38.48,12.95c12.21,4.86,23.73,10.15,33.18,16.33c4.84,3.09,8.99,6.33,12.44,9.86
			c1.61,1.77,3,3.38,4.84,5.59c1.61,2.06,3.46,4.27,4.84,6.33c3,4.12,5.99,8.24,8.76,12.36c2.76,4.27,5.3,8.39,7.83,12.65
			c2.3,4.27,4.61,8.53,6.45,12.8c2.07,4.27,3.46,8.68,4.84,12.95c1.38,4.27,2.3,8.68,2.76,12.95c0.69,4.27,0.69,8.68,0.46,12.95
			c-0.23,4.27-1.15,8.53-2.53,12.51c-0.69,2.06-1.38,4.12-2.53,5.89c-6.22,8.68-17.97,17.36-17.97,17.36l23.96-1.47
			c2.3-0.15,5.53-0.15,8.29,0c3,0.15,5.76,0.29,8.76,0.44c5.76,0.44,11.52,1.32,16.82,2.35c5.3,1.18,10.6,2.65,14.98,4.71
			c2.3,1.03,4.38,2.06,6.45,3.24c0.92,0.59,2.07,1.32,2.76,1.77l3.23,2.35c2.07,1.62,4.38,3.09,6.22,4.71l5.76,4.71l11.75,9.71
			l11.75,9.86c3.92,3.24,7.83,6.62,11.75,9.86c-2.3-3.83-4.84-7.65-7.6-11.48C1548.38,678.42,1545.62,674.6,1542.86,670.92z"/>
	</g>
	<path d="M1361.53,669.01c-0.69-4.86-0.92-9.71-1.84-14.71l-1.15-7.36l-1.38-7.36c-0.92-4.86-2.3-9.71-3.46-14.57
		c-1.38-4.86-3-9.71-4.61-14.42c-1.84-4.86-3.46-9.56-5.76-14.27l-3.23-7.06l-3.69-7.06c-2.3-4.71-5.07-9.27-7.83-13.98
		c-2.76-4.56-5.99-9.27-9.22-13.83l-19.81-25.6c-1.61-2.06-3.46-4.12-4.61-6.33l-4.15-6.47c-2.76-4.41-5.76-8.68-8.29-13.09
		l-7.14-13.24c-0.69-1.18-1.15-2.21-1.84-3.38l-1.38-3.38l-2.76-6.77l-2.76-6.77l-2.07-6.92c-1.38-4.56-3-9.27-3.69-13.83
		c-0.92-4.71-2.3-9.27-2.53-13.98c-0.46-4.71-1.15-9.42-0.92-14.12v-7.06l0.69-7.06l0.23-3.53c0.23-1.18,0.46-2.35,0.69-3.53
		c0.46-2.35,0.92-4.71,1.38-7.06c2.3-9.42,5.53-18.69,11.52-27.51c-3.92,4.12-6.91,8.53-9.91,13.09c-1.38,2.21-2.76,4.56-3.92,6.77
		l-3.23,6.92c-0.92,2.35-1.84,4.71-2.53,7.06c-0.46,1.18-0.92,2.35-1.15,3.53l-0.92,3.53l-1.84,7.21l-1.15,7.21
		c-0.92,4.86-0.92,9.71-1.15,14.57c-0.46,4.86,0.23,9.71,0.46,14.71c0.23,2.5,0.23,4.86,0.69,7.36l1.38,7.36l1.38,7.36l2.07,7.21
		l2.3,7.21l1.15,3.68c0.46,1.18,0.92,2.35,1.38,3.53l5.99,14.27c2.07,4.71,5.07,9.27,7.37,13.83l3.92,6.92
		c1.15,2.35,3,4.56,4.38,6.77l17.97,26.63c2.53,4.41,5.3,8.39,7.6,12.8s4.84,8.83,6.68,13.24l3,6.62l2.53,6.77
		c1.84,4.56,3.23,9.12,4.84,13.68c1.38,4.56,2.53,9.12,3.69,13.83c0.92,4.71,2.3,9.27,3,13.83l1.15,6.92l0.92,7.06
		c0.69,4.71,0.92,9.27,1.38,13.98c0.69,9.42,1.15,18.69,0.69,28.1c-0.46,18.83-2.3,37.52-5.99,56.2c-0.69,4.27-1.61,8.53-2.53,12.65
		c-6.68-25.31-28.57-50.47-28.57-50.47s3,35.46-2.3,57.82c-6.68,28.69-39.63,67.09-42.63,70.33c-1.61,1.62-3,3.24-4.61,4.71
		l-5.07,4.71c-3.46,3.09-6.45,6.33-9.91,9.42l-10.37,9.27c-3.46,3.09-7.14,6.03-10.83,9.12c-3.46,3.09-7.37,6.03-10.83,8.97
		l-11.29,8.97c4.38-2.65,8.76-5.15,12.9-7.95c4.15-2.65,8.53-5.3,12.67-8.09c4.15-2.8,8.29-5.59,12.21-8.39l11.98-8.53
		c4.15-2.8,7.83-5.89,11.52-8.83l5.76-4.41c1.84-1.47,3.69-3.09,5.53-4.71c3.69-3.09,7.37-6.33,10.83-9.42l9.68-9.71l2.3-2.35
		l0.23-0.15l0.23-0.29l0.23-0.29l0.46-0.74l1.15-1.32c1.38-1.77,3-3.53,4.15-5.44l3.69-5.44c1.15-1.91,2.07-3.68,3.23-5.59
		s2.07-3.68,2.76-5.59c0.92-1.91,1.84-3.83,2.53-5.74l2.3-5.74l0.23-0.74l6.91,23.69l11.29,38.25l16.13-37.66
		c4.15-9.86,7.37-19.13,10.14-28.84c2.76-9.56,5.3-19.27,7.14-28.84c1.84-9.71,3.46-19.42,4.61-29.13
		c0.69-4.86,0.92-9.71,1.38-14.57c0.23-4.86,0.46-9.71,0.46-14.71C1362.91,688.58,1362.45,678.86,1361.53,669.01z"/>
	<path d="M1128.12,741.54c1.84-3.83,3.69-7.5,5.3-11.33l2.53-5.74l2.3-5.74c1.61-3.83,2.76-7.65,3.92-11.48
		c1.15-3.83,2.07-7.8,3-11.62c0.69-3.97,1.84-7.8,2.3-11.77l0.92-5.89l0.46-5.89c0.46-3.97,0.46-7.94,0.46-11.92
		c0-3.97-0.23-8.09-0.69-12.06l-3.23-22.8c-0.23-1.91-0.69-3.68-0.69-5.59l-0.23-5.59c0-3.68-0.46-7.5-0.23-11.33l0.69-11.33
		c0-0.88,0-1.91,0.23-2.8l0.46-2.8l0.92-5.59l0.92-5.59l1.61-5.59c0.92-3.68,1.84-7.36,3.46-11.03c1.38-3.68,2.53-7.36,4.38-10.89
		c1.84-3.53,3.46-7.21,5.76-10.74l3.23-5.3l3.69-5.15l1.84-2.65c0.69-0.88,1.38-1.62,2.07-2.5c1.38-1.62,2.76-3.38,4.15-5
		c5.99-6.62,12.67-12.95,20.97-18.54c-4.84,2.35-8.99,5.15-13.13,7.94c-2.07,1.47-4.15,2.94-5.99,4.41l-5.53,4.56
		c-1.84,1.62-3.46,3.24-5.07,4.86c-0.92,0.88-1.84,1.62-2.53,2.5l-2.3,2.5l-4.61,5l-4.15,5.3c-2.76,3.53-5.07,7.06-7.37,10.74
		c-2.53,3.53-4.15,7.36-6.22,11.03c-0.92,1.91-2.07,3.68-2.76,5.59l-2.3,5.74l-2.3,5.74l-1.61,5.74l-1.61,5.74l-0.69,2.94
		c-0.23,1.03-0.23,1.91-0.46,2.94l-1.84,11.77c-0.46,3.97-0.46,7.8-0.69,11.77l-0.23,5.89c-0.23,1.91,0.23,3.97,0.23,5.89l1.38,23.1
		c0,3.68,0.23,7.36,0,11.03s-0.46,7.5-0.92,11.18l-0.69,5.59l-1.15,5.59c-0.69,3.68-1.61,7.36-2.53,11.03
		c-0.92,3.68-2.3,7.36-3.46,11.03c-1.38,3.68-2.53,7.36-4.15,10.89l-2.3,5.44l-2.53,5.44c-1.61,3.68-3.46,7.21-5.3,10.74
		c-3.69,7.06-7.6,14.27-12.21,21.19c-8.76,13.98-18.66,27.66-29.72,41.05c-2.53,3.09-5.07,6.03-7.6,8.97
		c6.45-20.16,1.38-42.96,1.38-42.96s-13.59,27.07-27.65,42.81c-17.97,20.16-59.91,42.96-63.59,44.73c-1.84,0.88-3.69,1.91-5.53,2.65
		l-5.76,2.65c-3.92,1.77-7.6,3.53-11.75,5.15l-11.98,5c-3.92,1.62-8.06,3.24-12.21,4.86c-3.92,1.62-8.06,3.09-12.21,4.71
		l-12.44,4.56c4.38-1.18,8.99-2.35,13.36-3.53c4.38-1.32,8.76-2.35,13.13-3.68c4.38-1.32,8.76-2.65,12.9-3.97l12.9-4.27
		c4.38-1.32,8.53-2.94,12.67-4.41l6.22-2.35c2.07-0.74,4.15-1.62,6.22-2.5c4.15-1.62,8.29-3.38,12.44-5.15l11.52-5.44l2.76-1.32
		l0.23-0.15l0.46-0.15l0.46-0.15l0.69-0.44l1.38-0.74c1.84-1.03,3.69-2.06,5.53-3.24l5.3-3.38c1.61-1.18,3.23-2.35,4.84-3.53
		c1.61-1.18,3.23-2.5,4.61-3.68c1.38-1.32,3-2.5,4.38-3.83l4.38-3.83l0.46-0.44l-5.53,18.98l-8.76,30.6l29.03-25.16
		c7.6-6.62,14.05-12.95,20.51-19.72c6.45-6.62,12.44-13.39,18.43-20.3c5.76-6.92,11.29-13.83,16.59-20.89
		c2.53-3.53,5.07-7.06,7.6-10.74c2.3-3.68,4.84-7.21,6.91-10.89C1120.29,756.4,1124.21,749.05,1128.12,741.54z"/>
	<g>
		<path d="M1508.29,109.18c-0.23-3.97-0.69-8.09-1.38-12.06c-0.46-3.97-1.61-7.94-2.53-12.06c-1.15-3.97-2.3-7.94-3.69-11.92
			c-0.69-1.91-1.61-3.97-2.3-5.89s-1.61-3.97-2.53-5.89c-1.84-3.83-3.92-7.65-6.22-11.48c-2.3-3.83-4.61-7.5-7.83-11.48
			l-10.37-13.09l-5.07,14.71c-0.92,2.65-2.07,5.59-3.23,8.39c-1.15,2.8-2.53,5.74-3.69,8.53c-2.53,5.59-5.53,11.18-8.52,16.77
			c-3,5.59-6.45,11.03-9.91,16.48c-3.69,5.44-7.14,10.74-11.29,16.04l-1.38,2.06l-1.38,1.77l-3.23,3.97l-3.23,3.97l-3.46,3.83
			c-2.3,2.5-4.38,5-6.91,7.5l-7.37,7.5l-7.6,7.5c-1.61,1.77-3.46,3.38-5.3,5.15c-0.46-1.77-0.69-3.38-1.15-5.15
			c-2.07-8.53-4.38-16.92-7.37-25.45c-1.38-4.27-3-8.53-4.61-12.65l-2.53-6.33l-2.76-6.33c-2.07-4.27-4.15-8.39-6.68-12.65
			l-0.92-1.62l-0.46-0.88l-0.46-0.74l-2.07-2.94c-1.15-1.91-3-4.12-4.38-6.18c-3-4.12-6.45-7.94-9.91-11.92
			c-3.69-3.83-7.37-7.65-11.52-11.33c-8.06-7.36-17.05-14.27-26.73-20.6c-9.68-6.47-20.28-12.36-31.34-17.8
			c-5.53-2.65-11.29-5.3-17.28-7.65c-3-1.18-5.99-2.35-8.99-3.53l-4.61-1.62c-1.61-0.59-3-1.03-5.3-1.62l-39.4-11.92l20.51,24.86
			c2.07,2.35,4.15,5.15,6.22,7.8s3.92,5.44,5.99,8.09c3.92,5.44,7.37,11.03,10.83,16.63c1.84,2.8,3.46,5.59,5.07,8.39
			c1.61,2.8,3,5.59,4.61,8.53l4.15,8.53c1.15,2.8,2.76,5.74,3.92,8.53c1.15,2.94,2.53,5.74,3.46,8.68l1.61,4.27l0.46,1.03l0.23,1.03
			l0.69,2.21c0.92,2.94,1.38,5.44,2.07,8.53c0.69,2.94,1.15,5.89,1.38,8.83c0,0.15,0,0.29,0,0.44c-1.61-1.32-3.23-2.5-5.07-3.83
			c-14.29-10.59-30.87-19.86-48.85-27.81c-17.97-7.94-37.33-14.42-57.37-19.42c-20.05-5.15-40.78-8.83-61.98-11.33
			c-20.97-2.5-42.39-3.83-63.59-4.27c-21.2-0.44-42.39,0-63.36,1.32c-5.3,0.29-10.37,0.59-15.67,1.03l-3.92,0.29l-3.92,0.29
			l-7.6,0.59c-5.07,0.44-10.6,1.03-15.67,1.62s-10.37,1.18-15.44,1.91c-20.51,2.65-41.01,5.89-61.06,9.71
			c-40.09,7.8-79.03,17.36-116.59,28.84c-37.56,11.33-73.96,24.13-109.21,38.11c-17.51,7.06-34.79,14.27-51.84,21.78
			c-17.05,7.5-33.87,15.15-50.23,23.25c-32.72,16.04-64.51,32.96-94.24,51.2c15.9-8.39,32.26-16.33,48.85-24.13
			c16.59-7.8,33.41-15.45,50.46-22.66c34.1-14.71,68.89-28.54,104.6-41.2c17.97-6.33,35.94-12.51,54.15-18.39
			c18.43-5.74,36.86-11.33,55.53-16.33c37.56-10.15,75.8-19.13,114.97-25.89c19.58-3.38,39.4-6.18,59.21-8.39
			c5.07-0.59,9.91-1.03,14.98-1.62c5.07-0.44,9.91-0.88,14.75-1.32l7.6-0.59l3.69-0.29l3.69-0.29c5.07-0.29,10.14-0.59,14.98-0.88
			c20.05-0.88,40.09-1.18,60.14-0.59c20.05,0.59,39.86,2.06,59.21,4.56c38.71,5,76.03,14.12,107.83,28.4
			c15.9,7.06,30.41,15.45,43.09,24.72c6.22,4.71,11.98,9.56,17.28,14.71c2.53,2.5,5.07,5.15,7.14,7.8c1.15,1.32,2.07,2.65,3.23,3.97
			l1.38,1.91c0.46,0.59,0.92,1.47,1.15,1.77l27.42,47.08l1.84-50.17c0.23-3.24,0-6.33,0-9.56c0-3.09-0.23-6.33-0.46-9.42
			c-0.46-6.33-0.92-12.65-1.84-18.98c-0.46-3.24-0.92-6.33-1.61-9.56c-0.69-3.09-1.61-6.62-2.3-9.71l-0.69-2.21l-0.46-1.32
			l-0.46-1.18l-1.61-4.71c-1.15-3.09-2.53-6.18-3.69-9.27c-1.15-3.09-2.76-6.03-4.15-9.12l-4.61-8.97
			c-1.61-2.94-3.23-6.03-4.84-8.97s-3.46-5.89-5.3-8.83c-0.92-1.47-1.84-2.94-2.76-4.41c6.45,3.53,12.9,7.06,18.89,10.89
			c8.76,5.74,17.05,11.77,24.42,18.24c3.69,3.24,7.14,6.62,10.37,10c3.23,3.38,6.22,6.92,8.99,10.45c1.38,1.77,2.76,3.38,3.92,5.44
			l2.07,2.94l0.46,0.74l0.23,0.59l0.92,1.32c2.3,3.68,4.38,7.5,6.45,11.33l2.76,5.89l2.53,5.89c1.61,3.97,3.23,7.94,4.61,12.06
			c3,8.09,5.53,16.33,7.83,24.57l3.23,12.36c0.92,4.12,2.07,8.24,2.76,12.36l4.38,21.04l17.74-17.51l7.83-7.65l7.6-7.65
			c2.53-2.65,5.07-5.15,7.37-7.8l7.37-7.8l7.14-7.94c2.3-2.65,4.61-5.44,6.91-8.09l3.46-4.12l3-4.12l3-4.12l1.61-2.21l1.38-2.06
			c3.92-5.59,7.6-11.33,10.83-17.07c3.23-5.74,6.45-11.48,9.22-17.36s5.53-11.62,7.83-17.66c0.23-0.74,0.69-1.62,0.92-2.35
			c1.38,2.21,2.76,4.41,3.92,6.77c2.07,3.68,3.92,7.21,5.53,11.03c1.61,3.68,3,7.5,4.38,11.18c1.15,3.83,2.53,7.5,3.23,11.33
			c0.92,3.83,1.61,7.65,2.07,11.48c0.46,1.91,0.46,3.83,0.46,5.74s0.46,3.83,0.46,5.74v5.89v1.47v0.59v0.74l-0.23,2.94
			c-0.46,3.83-0.92,7.65-1.84,11.48s-2.07,7.65-3.46,11.48c-1.38,3.83-3,7.5-4.84,11.18c-1.84,3.68-3.92,7.36-6.22,11.03
			c-4.61,7.21-9.68,14.42-15.67,21.33c-5.99,6.92-12.44,13.54-19.81,19.86c8.29-5.89,15.44-12.36,22.12-18.98
			c6.68-6.62,12.9-13.54,18.2-20.89c10.6-14.42,18.2-29.87,20.97-46.05l0.46-3.09l0.23-0.74v-0.88l0.23-1.47l0.46-5.89
			C1508.29,117.42,1508.52,113.3,1508.29,109.18z"/>
		<path d="M988.96,264.11c1.38-6.18,4.15-11.62,9.45-15.89c5.07-4.27,12.44-7.36,21.2-9.56c8.76-2.06,18.2-3.24,27.42-3.68
			c9.22-0.59,18.43-0.59,26.96-0.29c8.53,0.15,16.36,0.74,23.27,1.18c6.91,0.44,13.13,1.03,18.2,1.47
			c10.14,0.88,15.9,1.62,15.9,1.62s-5.07-2.06-14.52-4.86c-9.45-2.8-23.04-6.47-40.78-9.12c-8.76-1.32-18.43-2.5-29.26-2.94
			c-10.6-0.44-22.35-0.29-34.56,1.77c-12.21,1.91-25.11,6.03-35.02,12.95c-4.84,3.38-8.76,7.36-11.75,11.62
			c-3,4.12-4.61,8.53-5.76,12.8c-0.69,2.21-0.92,4.27-1.15,6.33s-0.23,4.27-0.46,6.03c-0.23,3.53-0.23,7.65,0,11.48
			c0.46,7.65,1.61,15.01,3.46,22.22c1.84,7.21,4.38,13.98,7.37,20.45c3,6.33,6.45,12.21,10.14,17.51c3.69,5.3,7.6,10,11.52,13.98
			s7.6,7.36,11.06,9.86c3.23,2.65,6.22,4.56,8.29,5.74c2.07,1.32,3.23,1.77,3.23,1.77s-0.46-0.88-1.61-2.5
			c-0.92-1.62-2.3-4.12-3.92-7.21c-3-6.18-6.91-15.01-10.14-25.6c-3.23-10.59-6.22-22.95-7.83-36.34
			c-0.92-6.62-1.38-13.54-1.61-20.6c0-3.53-0.23-6.77-0.23-10.59c0-1.91,0-3.38,0.23-5C988.5,267.2,988.73,265.58,988.96,264.11z"/>
		<path d="M1124.9,269.99c-5.76-1.91-14.52-4.41-25.81-6.03c-5.76-0.74-12.21-1.32-19.35-1.03s-15.44,1.32-23.04,4.86
			c-7.83,3.38-13.13,9.27-15.21,14.86c-0.46,1.32-0.92,2.8-1.15,4.27l-0.23,2.06l-0.23,1.03l0,0v0.59v0.15v0.15v0.44l0.23,3.53v1.77
			v0.88l0.23,1.03l1.15,4.12c0.46,1.32,0.69,2.8,1.38,3.97c1.15,2.5,2.3,5,3.92,7.21c3,4.71,6.68,8.97,10.83,12.8
			c2.07,1.91,4.15,3.83,6.22,5.59c2.3,1.62,4.38,3.38,6.68,4.86c2.3,1.47,4.38,2.94,6.68,4.41c2.3,1.32,4.38,2.65,6.68,3.83
			c4.38,2.35,8.53,4.27,12.21,6.03c3.69,1.62,7.14,2.94,10.14,3.97c2.76,1.03,5.07,1.77,6.68,2.21s2.53,0.74,2.53,0.74
			s-2.3-1.91-6.22-5.15c-2.07-1.62-4.38-3.68-6.91-5.89s-5.53-4.86-8.53-7.65c-1.38-1.47-3-2.8-4.61-4.41
			c-1.61-1.47-3.23-3.09-4.84-4.71c-1.61-1.62-3-3.38-4.61-5c-1.61-1.77-3-3.53-4.38-5.3c-1.61-1.77-2.76-3.68-4.15-5.59
			c-0.69-0.88-1.15-1.91-1.84-2.8c-0.46-1.03-1.15-1.91-1.61-2.94c-1.15-1.91-1.61-3.97-2.76-5.89c-0.46-1.03-0.69-1.91-0.92-2.8
			l-0.69-2.8l-0.23-0.74v-0.88l-0.23-1.77l-0.23-3.53V290l0,0v-0.59v-1.32c0-0.88,0.23-1.77,0.46-2.65c0.92-3.24,2.76-5.89,5.99-7.8
			c3.23-1.91,8.06-3.38,13.13-4.12c5.07-0.88,10.6-1.18,15.9-1.32c10.37-0.29,19.35,0.15,25.81,0.44c3.23,0.15,5.76,0.29,7.37,0.44
			c1.84,0.15,2.76,0.15,2.76,0.15s-0.69-0.29-2.3-0.88C1130.2,271.91,1127.89,271.02,1124.9,269.99z"/>
	</g>
	<path d="M635.06,171.56c0,0,8.99-3.97,25.58-10.3c8.29-3.09,18.2-6.92,29.95-11.03c11.75-4.12,24.88-8.68,39.63-13.39
		c14.75-4.71,30.87-9.71,48.15-14.42c17.28-4.86,35.71-9.71,55.07-14.12c19.35-4.41,39.63-8.83,60.83-12.36
		c20.97-3.53,42.86-6.62,64.74-8.83c22.12-1.91,44.7-3.09,67.05-2.21c2.76,0.15,5.53,0.29,8.29,0.29c2.76,0.15,5.53,0.44,8.29,0.59
		c2.76,0.29,5.53,0.44,8.29,0.74c2.76,0.29,5.3,0.74,8.06,1.03c2.53,0.29,5.07,0.59,7.83,1.03c2.76,0.44,5.3,0.88,8.06,1.32
		c5.3,0.74,10.37,1.91,15.44,2.8c20.28,3.97,38.71,9.86,55.3,16.48c8.29,3.24,15.9,6.77,23.04,10.45
		c6.91,3.68,13.59,7.5,19.35,11.33c11.75,7.65,20.97,15.45,28.34,22.81c7.37,7.21,12.67,13.98,16.82,19.57
		c3.92,5.59,6.45,10.15,8.06,13.39c1.61,3.09,2.07,4.86,2.07,4.86s-0.92-1.62-3.23-4.56c-2.07-2.94-5.76-7.21-10.6-12.36
		c-4.84-5.15-11.29-11.33-19.58-17.8c-8.29-6.47-18.2-13.39-30.18-20.16c-11.98-6.62-26.04-13.24-41.93-18.83
		s-33.64-10.3-52.53-13.83c-4.84-0.74-9.68-1.77-14.29-2.35c-2.3-0.29-4.84-0.74-7.14-1.03c-2.53-0.29-5.07-0.59-7.6-0.88
		s-5.07-0.59-7.6-0.74c-2.53-0.15-5.07-0.29-7.6-0.44c-2.53-0.15-5.07-0.44-7.6-0.44l-7.6-0.29c-20.51-0.44-41.93,0.44-62.9,2.5
		c-21.2,1.91-42.16,4.71-62.67,8.09c-20.51,3.38-40.78,6.92-59.91,11.03c-19.35,4.12-37.79,8.09-55.3,12.21
		c-17.51,4.12-33.87,8.24-49.08,12.21c-15.21,3.97-29.03,7.65-41.24,10.89c-12.21,3.38-22.81,6.33-31.57,8.83
		c-8.76,2.5-15.67,4.41-20.28,5.74C637.59,170.83,635.06,171.56,635.06,171.56z"/>
</g>
<path d="M1615.66,199.79"/>
</svg>
