<?xml version="1.0" encoding="utf-8"?>
<!-- Generator: Adobe Illustrator 26.5.0, SVG Export Plug-In . SVG Version: 6.00 Build 0)  -->
<svg version="1.1" id="Layer_1" xmlns="http://www.w3.org/2000/svg" xmlns:xlink="http://www.w3.org/1999/xlink" x="0px" y="0px"
	 viewBox="0 0 1900 900" style="enable-background:new 0 0 1900 900;" xml:space="preserve">
<g>
	<g>
		<path d="M1271.29,357.14l18.65,6.87l-7.66-15.16c-1.45-2.96-3.04-5.69-4.63-8.53c-1.59-2.84-3.18-5.57-4.92-8.29
			c-1.73-2.72-3.33-5.45-5.06-8.17c-1.73-2.72-3.47-5.45-5.35-8.06c-1.88-2.61-3.76-5.45-5.64-7.94l-5.93-7.58
			c-2.17-2.72-4.34-5.09-6.51-7.7c-2.31-2.49-4.63-4.98-6.94-7.34c-2.46-2.37-4.77-4.74-7.37-6.99c-2.6-2.25-5.06-4.5-7.81-6.63
			c-2.6-2.13-5.2-4.38-7.95-6.4c-2.75-2.13-5.49-4.03-8.38-6.04c-2.89-2.01-5.64-3.91-8.53-5.8c-2.89-1.9-5.93-3.67-8.82-5.45
			c-3.04-1.78-6.07-3.55-9.11-5.21c-3.04-1.66-6.22-3.32-9.4-4.74c5.49,4.03,10.84,8.17,16.05,12.44c2.6,2.13,5.06,4.26,7.66,6.4
			c2.6,2.13,5.06,4.38,7.52,6.52c2.46,2.25,4.92,4.5,7.23,6.75c2.46,2.25,4.77,4.5,6.94,6.87c2.31,2.25,4.48,4.74,6.65,6.99
			c2.17,2.37,4.19,4.86,6.36,7.23c2.02,2.37,3.9,4.86,5.93,7.34c1.73,2.49,3.76,5.09,5.35,7.46l5.2,7.94
			c1.73,2.61,3.33,5.21,4.92,7.82c1.73,2.61,3.18,5.33,4.77,7.94c1.59,2.61,3.04,5.33,4.63,8.06c0.43,0.71,0.87,1.54,1.3,2.25
			c-0.87-0.24-1.73-0.47-2.6-0.59c-2.31-0.59-4.63-1.07-6.94-1.54c-2.31-0.47-4.63-1.07-6.94-1.42l-7.08-1.18
			c-2.31-0.47-4.77-0.71-7.08-0.95l-7.08-0.83l-0.87-0.12l-1.01-0.12l-1.73-0.12l-3.47-0.36l-7.23-0.47
			c-2.46-0.12-4.77-0.24-7.23-0.24s-4.77,0-7.23,0s-4.77,0.12-7.23,0.24c-2.46,0.12-4.92,0.24-7.23,0.47
			c-2.46,0.24-4.92,0.47-7.37,0.83c-1.16,0.12-2.46,0.36-3.76,0.59c-1.3,0.24-2.31,0.47-4.05,0.83l-27.18,6.87l27.61,4.26
			c2.02,0.36,4.34,0.71,6.51,1.18c2.17,0.47,4.48,0.95,6.65,1.54c4.34,1.18,8.67,2.49,12.87,3.91c2.17,0.71,4.19,1.54,6.22,2.37
			s4.05,1.66,6.07,2.61c3.9,1.9,7.66,3.91,11.13,6.4c0.87,0.59,1.73,1.18,2.46,1.9l0.58,0.47l0.14,0.12h0.14l-0.14-0.12l0.29,0.24
			l1.3,1.07c0.72,0.71,1.73,1.42,2.46,2.13l2.17,2.13c0.72,0.71,1.3,1.54,2.02,2.25c0.72,0.71,1.3,1.54,1.88,2.37
			c1.3,1.54,2.46,3.2,3.47,4.98c1.01,1.66,2.17,3.44,3.04,5.21c1.01,1.78,1.88,3.55,2.6,5.45c1.59,3.67,2.89,7.46,3.76,11.37
			c0.14-2.01,0-3.91-0.14-5.92c-0.29-2.01-0.43-4.03-0.87-5.92c-0.43-2.01-0.87-3.91-1.59-5.92c-0.58-2.01-1.3-3.91-2.17-5.8
			c-0.87-1.9-1.73-3.79-2.89-5.69c-0.43-0.95-1.01-1.9-1.73-2.72c-0.58-0.95-1.16-1.78-1.88-2.72l-2.02-2.72
			c-0.72-0.95-1.45-1.66-2.17-2.49l-1.01-1.18l-0.29-0.36l-0.43-0.36l-0.58-0.59c-0.87-0.83-1.73-1.54-2.6-2.37
			c-3.47-3.08-7.37-5.8-11.57-8.17c-3.61-2.13-7.52-4.15-11.42-5.92c1.01,0,2.17,0.12,3.18,0.12c2.17,0.12,4.48,0.24,6.65,0.36
			l6.51,0.59l6.79,0.71l6.65,0.83c2.17,0.36,4.48,0.59,6.65,0.95l6.51,1.07c2.17,0.36,4.34,0.83,6.51,1.3
			c2.17,0.47,4.34,0.83,6.51,1.42c2.17,0.47,4.34,0.95,6.36,1.54s4.19,1.07,6.22,1.78C1267.53,355.84,1269.7,356.55,1271.29,357.14z
			"/>
		<path d="M1322.67,403.93c-27.9-19.19-51.46-29.38-51.46-29.38s95.56,82.57,88.18,92.88c-7.52,10.31-37.01-1.3-37.01-1.3
			s4.77,16.82,16.48,22.51c9.54,4.74,27.47,8.65,27.18,12.91c-0.43,4.15-8.24,6.4-8.24,6.4s2.31,9.36,10.26,9
			c7.81-0.36,26.31-27.72,26.02-47.03C1393.65,459.61,1355.49,426.68,1322.67,403.93z"/>
		<path d="M1364.96,534.37c0,0-0.29,0.47-0.87,1.42c-0.43,0.95-1.3,2.25-2.17,3.91s-2.02,3.79-3.33,6.16
			c-1.3,2.37-2.75,4.98-4.34,7.82c-0.72,1.42-1.59,2.96-2.46,4.5c-0.87,1.54-1.59,3.08-2.6,4.74c-1.73,3.2-3.76,6.52-5.78,9.95
			c-1.16,1.66-2.17,3.44-3.18,5.09c-1.16,1.66-2.31,3.32-3.47,5.09c-1.3,1.66-2.46,3.32-3.76,4.98c-1.3,1.54-2.6,3.08-4.05,4.62
			l-1.88,1.9l-1.01,0.95c-0.14,0.12-0.29,0.36-0.43,0.47l-0.72,0.59c-0.87,0.71-1.88,1.42-2.75,2.13l-0.72,0.59l-0.29,0.24
			l-1.3,0.71c-0.87,0.47-1.73,1.07-2.6,1.54c-0.87,0.47-1.88,0.95-2.75,1.42c-1.73,0.95-3.76,1.66-5.64,2.49
			c-1.88,0.83-3.9,1.3-5.78,2.01c-2.02,0.47-3.9,1.07-5.93,1.42s-3.9,0.83-5.78,1.07c-1.88,0.36-3.76,0.59-5.64,0.83
			c-3.61,0.47-7.08,0.71-10.12,0.95c-3.04,0.12-5.78,0.24-8.1,0.36c-2.31,0-4.05,0-5.35,0c-1.3,0-1.88,0-1.88,0s0.58,0.24,1.73,0.71
			c1.16,0.47,2.75,1.18,4.92,1.9c2.17,0.71,4.77,1.54,7.95,2.25c3.18,0.71,6.79,1.42,10.84,1.78c4.05,0.47,8.53,0.59,13.3,0.36
			c2.46-0.12,4.92-0.47,7.37-0.71c1.3-0.24,2.46-0.47,3.76-0.71c1.3-0.24,2.6-0.47,3.9-0.83c2.6-0.71,5.2-1.42,7.66-2.49
			c1.3-0.47,2.6-0.95,3.76-1.54c1.16-0.59,2.46-1.3,3.61-2.01l1.88-0.95l0.29-0.12l0.58-0.47l0.29-0.24l0.72-0.47
			c1.01-0.71,1.88-1.42,2.89-2.13c0.87-0.59,2.02-1.78,3.04-2.61l3.04-2.96c1.73-1.9,3.18-3.79,4.77-5.69
			c1.45-1.9,2.75-3.91,3.9-5.92c1.16-2.01,2.31-3.91,3.33-5.92c1.01-2.01,1.88-3.91,2.75-5.92c1.59-3.91,3.04-7.7,4.05-11.37
			s1.88-7.11,2.46-10.31c0.58-3.2,1.01-6.16,1.3-8.77c0.29-2.61,0.29-4.98,0.43-6.87c0.14-1.9,0-3.44,0-4.38
			C1365.11,534.84,1364.96,534.37,1364.96,534.37z"/>
		<path d="M1221.12,585.55c-1.73-2.96-3.76-5.92-5.64-8.89l-3.04-4.5c-1.01-1.54-2.17-2.96-3.18-4.26l-1.59-2.13
			c-0.87-0.95-1.45-1.54-2.31-2.37c-1.59-1.42-3.18-2.72-5.06-3.91c-3.61-2.37-7.66-4.26-11.71-5.69c-4.19-1.42-8.38-2.49-12.72-3.2
			c-0.87-0.12-1.73-0.24-2.46-0.36c0.72-1.42,1.3-2.72,1.73-4.15c1.59-4.03,2.31-8.17,2.89-12.32c0.58-4.15,0.58-8.17,0.29-12.32
			c-0.29-4.03-1.01-8.06-1.73-12.08c-0.87-3.91-2.02-7.82-3.47-11.73c-1.3-3.79-3.04-7.58-4.77-11.25l-2.75-5.45l-3.04-5.33
			l-3.33-5.21c-1.16-1.78-2.31-3.44-3.61-5.21c-1.16-1.78-2.46-3.32-3.61-4.86c-1.16-1.54-2.75-3.44-4.19-5.21
			c-3.04-3.44-6.65-6.4-10.55-9c-7.66-5.33-16.05-9.24-24.72-12.56c-8.67-3.32-17.64-5.8-26.74-7.82c-4.48-0.95-9.11-1.9-13.73-2.61
			s-9.25-1.3-13.88-1.66c8.82,2.49,17.35,5.33,25.73,8.41c8.38,3.08,16.48,6.52,24.14,10.43c7.66,3.91,14.89,8.17,20.82,13.15
			c3.04,2.49,5.64,5.09,7.81,7.94c1.01,1.42,1.88,2.72,3.04,4.5c1.01,1.66,2.17,3.44,3.04,5.09c1.88,3.32,3.76,6.63,5.49,9.95
			c1.73,3.44,3.33,6.75,4.92,10.19c1.45,3.44,2.89,6.87,4.05,10.31c1.3,3.44,2.17,6.99,3.04,10.43c0.87,3.44,1.45,6.99,1.73,10.43
			c0.43,3.44,0.43,6.99,0.29,10.43c-0.14,3.44-0.72,6.87-1.59,10.07c-0.43,1.66-0.87,3.32-1.59,4.74
			c-3.9,6.99-11.28,13.98-11.28,13.98l15.03-1.18c1.45-0.12,3.47-0.12,5.2,0c1.88,0.12,3.61,0.24,5.49,0.36
			c3.61,0.36,7.23,1.07,10.55,1.9c3.33,0.95,6.65,2.13,9.4,3.79c1.45,0.83,2.75,1.66,4.05,2.61c0.58,0.47,1.3,1.07,1.73,1.42
			l2.02,1.9c1.3,1.3,2.75,2.49,3.9,3.79l3.61,3.79l7.37,7.82l7.37,7.94c2.46,2.61,4.92,5.33,7.37,7.94
			c-1.45-3.08-3.04-6.16-4.77-9.24C1224.59,591.59,1222.86,588.51,1221.12,585.55z"/>
	</g>
	<path d="M1107.35,584.01c-0.43-3.91-0.58-7.82-1.16-11.85l-0.72-5.92l-0.87-5.92c-0.58-3.91-1.45-7.82-2.17-11.73
		c-0.87-3.91-1.88-7.82-2.89-11.61c-1.16-3.91-2.17-7.7-3.61-11.49l-2.02-5.69l-2.31-5.69c-1.45-3.79-3.18-7.46-4.92-11.25
		c-1.73-3.67-3.76-7.46-5.78-11.14l-12.43-20.61c-1.01-1.66-2.17-3.32-2.89-5.09l-2.6-5.21c-1.73-3.55-3.61-6.99-5.2-10.54
		l-4.48-10.66c-0.43-0.95-0.72-1.78-1.16-2.72l-0.87-2.72l-1.73-5.45l-1.73-5.45l-1.3-5.57c-0.87-3.67-1.88-7.46-2.31-11.14
		c-0.58-3.79-1.45-7.46-1.59-11.25c-0.29-3.79-0.72-7.58-0.58-11.37v-5.69l0.43-5.69l0.14-2.84c0.14-0.95,0.29-1.9,0.43-2.84
		c0.29-1.9,0.58-3.79,0.87-5.69c1.45-7.58,3.47-15.05,7.23-22.15c-2.46,3.32-4.34,6.87-6.22,10.54c-0.87,1.78-1.73,3.67-2.46,5.45
		l-2.02,5.57c-0.58,1.9-1.16,3.79-1.59,5.69c-0.29,0.95-0.58,1.9-0.72,2.84l-0.58,2.84l-1.16,5.8l-0.72,5.8
		c-0.58,3.91-0.58,7.82-0.72,11.73c-0.29,3.91,0.14,7.82,0.29,11.85c0.14,2.01,0.14,3.91,0.43,5.92l0.87,5.92l0.87,5.92l1.3,5.8
		l1.45,5.8l0.72,2.96c0.29,0.95,0.58,1.9,0.87,2.84l3.76,11.49c1.3,3.79,3.18,7.46,4.63,11.14l2.46,5.57
		c0.72,1.9,1.88,3.67,2.75,5.45l11.28,21.44c1.59,3.55,3.33,6.75,4.77,10.31c1.45,3.55,3.04,7.11,4.19,10.66l1.88,5.33l1.59,5.45
		c1.16,3.67,2.02,7.34,3.04,11.02c0.87,3.67,1.59,7.34,2.31,11.14c0.58,3.79,1.45,7.46,1.88,11.14l0.72,5.57l0.58,5.69
		c0.43,3.79,0.58,7.46,0.87,11.25c0.43,7.58,0.72,15.05,0.43,22.63c-0.29,15.16-1.45,30.21-3.76,45.25
		c-0.43,3.44-1.01,6.87-1.59,10.19c-4.19-20.38-17.93-40.63-17.93-40.63s1.88,28.55-1.45,46.56c-4.19,23.1-24.87,54.02-26.74,56.63
		c-1.01,1.3-1.88,2.61-2.89,3.79l-3.18,3.79c-2.17,2.49-4.05,5.09-6.22,7.58l-6.51,7.46c-2.17,2.49-4.48,4.86-6.79,7.34
		c-2.17,2.49-4.63,4.86-6.79,7.23l-7.08,7.23c2.75-2.13,5.49-4.15,8.1-6.4c2.6-2.13,5.35-4.26,7.95-6.52c2.6-2.25,5.2-4.5,7.66-6.75
		l7.52-6.87c2.6-2.25,4.92-4.74,7.23-7.11l3.61-3.55c1.16-1.18,2.31-2.49,3.47-3.79c2.31-2.49,4.63-5.09,6.79-7.58l6.07-7.82
		l1.45-1.9l0.14-0.12l0.14-0.24l0.14-0.24l0.29-0.59l0.72-1.07c0.87-1.42,1.88-2.84,2.6-4.38l2.31-4.38c0.72-1.54,1.3-2.96,2.02-4.5
		c0.72-1.54,1.3-2.96,1.73-4.5c0.58-1.54,1.16-3.08,1.59-4.62l1.45-4.62l0.14-0.59l4.34,19.07l7.08,30.8l10.12-30.33
		c2.6-7.94,4.63-15.4,6.36-23.22c1.73-7.7,3.33-15.52,4.48-23.22c1.16-7.82,2.17-15.64,2.89-23.46c0.43-3.91,0.58-7.82,0.87-11.73
		c0.14-3.91,0.29-7.82,0.29-11.85C1108.22,599.76,1107.93,591.94,1107.35,584.01z"/>
	<path d="M960.91,642.41c1.16-3.08,2.31-6.04,3.32-9.12l1.59-4.62l1.45-4.62c1.01-3.08,1.73-6.16,2.46-9.24
		c0.72-3.08,1.3-6.28,1.88-9.36c0.43-3.2,1.16-6.28,1.45-9.48l0.58-4.74l0.29-4.74c0.29-3.2,0.29-6.4,0.29-9.6
		c0-3.2-0.14-6.52-0.43-9.71l-2.02-18.36c-0.14-1.54-0.43-2.96-0.43-4.5l-0.14-4.5c0-2.96-0.29-6.04-0.14-9.12l0.43-9.12
		c0-0.71,0-1.54,0.14-2.25l0.29-2.25l0.58-4.5l0.58-4.5l1.01-4.5c0.58-2.96,1.16-5.92,2.17-8.89c0.87-2.96,1.59-5.92,2.75-8.77
		c1.16-2.84,2.17-5.8,3.61-8.65l2.02-4.26l2.31-4.15l1.16-2.13c0.43-0.71,0.87-1.3,1.3-2.01c0.87-1.3,1.73-2.72,2.6-4.03
		c3.76-5.33,7.95-10.43,13.16-14.93c-3.04,1.9-5.64,4.15-8.24,6.4c-1.3,1.18-2.6,2.37-3.76,3.55l-3.47,3.67
		c-1.16,1.3-2.17,2.61-3.18,3.91c-0.58,0.71-1.16,1.3-1.59,2.01l-1.45,2.01l-2.89,4.03l-2.6,4.26c-1.73,2.84-3.18,5.69-4.63,8.65
		c-1.59,2.84-2.6,5.92-3.9,8.89c-0.58,1.54-1.3,2.96-1.73,4.5l-1.45,4.62l-1.45,4.62l-1.01,4.62l-1.01,4.62l-0.43,2.37
		c-0.14,0.83-0.14,1.54-0.29,2.37l-1.16,9.48c-0.29,3.2-0.29,6.28-0.43,9.48l-0.14,4.74c-0.14,1.54,0.14,3.2,0.14,4.74l0.87,18.6
		c0,2.96,0.14,5.92,0,8.89s-0.29,6.04-0.58,9l-0.43,4.5l-0.72,4.5c-0.43,2.96-1.01,5.92-1.59,8.89c-0.58,2.96-1.45,5.92-2.17,8.89
		c-0.87,2.96-1.59,5.92-2.6,8.77l-1.45,4.38l-1.59,4.38c-1.01,2.96-2.17,5.8-3.32,8.65c-2.31,5.69-4.77,11.49-7.66,17.06
		c-5.49,11.25-11.71,22.27-18.65,33.05c-1.59,2.49-3.18,4.86-4.77,7.23c4.05-16.23,0.87-34.59,0.87-34.59s-8.53,21.8-17.35,34.47
		c-11.28,16.23-37.59,34.59-39.9,36.01c-1.16,0.71-2.31,1.54-3.47,2.13l-3.61,2.13c-2.46,1.42-4.77,2.84-7.37,4.15l-7.52,4.03
		c-2.46,1.3-5.06,2.61-7.66,3.91c-2.46,1.3-5.06,2.49-7.66,3.79l-7.81,3.67c2.75-0.95,5.64-1.9,8.38-2.84
		c2.75-1.07,5.49-1.9,8.24-2.96c2.75-1.07,5.49-2.13,8.1-3.2l8.1-3.44c2.75-1.07,5.35-2.37,7.95-3.55l3.9-1.9
		c1.3-0.59,2.6-1.3,3.9-2.01c2.6-1.3,5.2-2.72,7.81-4.15l7.23-4.38l1.73-1.07l0.14-0.12l0.29-0.12l0.29-0.12l0.43-0.36l0.87-0.59
		c1.16-0.83,2.31-1.66,3.47-2.61l3.32-2.72c1.01-0.95,2.02-1.9,3.04-2.84c1.01-0.95,2.02-2.01,2.89-2.96
		c0.87-1.07,1.88-2.01,2.75-3.08l2.75-3.08l0.29-0.36l-3.47,15.28l-5.49,24.64L909.44,727c4.77-5.33,8.82-10.43,12.87-15.87
		c4.05-5.33,7.81-10.78,11.57-16.35c3.61-5.57,7.08-11.14,10.41-16.82c1.59-2.84,3.18-5.69,4.77-8.65c1.45-2.96,3.04-5.8,4.34-8.77
		C955.99,654.38,958.45,648.45,960.91,642.41z"/>
	<g>
		<path d="M1199.44,133.24c-0.14-3.2-0.43-6.52-0.87-9.71c-0.29-3.2-1.01-6.4-1.59-9.71c-0.72-3.2-1.45-6.4-2.31-9.6
			c-0.43-1.54-1.01-3.2-1.45-4.74c-0.43-1.54-1.01-3.2-1.59-4.74c-1.16-3.08-2.46-6.16-3.9-9.24c-1.45-3.08-2.89-6.04-4.92-9.24
			l-6.51-10.54l-3.18,11.85c-0.58,2.13-1.3,4.5-2.02,6.75s-1.59,4.62-2.31,6.87c-1.59,4.5-3.47,9-5.35,13.51
			c-1.88,4.5-4.05,8.89-6.22,13.27c-2.31,4.38-4.48,8.65-7.08,12.91l-0.87,1.66l-0.87,1.42l-2.02,3.2l-2.02,3.2l-2.17,3.08
			c-1.45,2.01-2.75,4.03-4.34,6.04l-4.63,6.04l-4.77,6.04c-1.01,1.42-2.17,2.72-3.33,4.15c-0.29-1.42-0.43-2.72-0.72-4.15
			c-1.3-6.87-2.75-13.62-4.63-20.49c-0.87-3.44-1.88-6.87-2.89-10.19l-1.59-5.09l-1.73-5.09c-1.3-3.44-2.6-6.75-4.19-10.19
			l-0.58-1.3l-0.29-0.71l-0.29-0.59l-1.3-2.37c-0.72-1.54-1.88-3.32-2.75-4.98c-1.88-3.32-4.05-6.4-6.22-9.6
			c-2.31-3.08-4.63-6.16-7.23-9.12c-5.06-5.92-10.7-11.49-16.77-16.59c-6.07-5.21-12.72-9.95-19.66-14.33
			c-3.47-2.13-7.08-4.26-10.84-6.16c-1.88-0.95-3.76-1.9-5.64-2.84l-2.89-1.3c-1.01-0.47-1.88-0.83-3.32-1.3l-24.72-9.6l12.87,20.02
			c1.3,1.9,2.6,4.15,3.9,6.28s2.46,4.38,3.76,6.52c2.46,4.38,4.63,8.89,6.79,13.39c1.16,2.25,2.17,4.5,3.18,6.75
			c1.01,2.25,1.88,4.5,2.89,6.87l2.6,6.87c0.72,2.25,1.73,4.62,2.46,6.87c0.72,2.37,1.59,4.62,2.17,6.99l1.01,3.44l0.29,0.83
			l0.14,0.83l0.43,1.78c0.58,2.37,0.87,4.38,1.3,6.87c0.43,2.37,0.72,4.74,0.87,7.11c0,0.12,0,0.24,0,0.36
			c-1.01-1.07-2.02-2.01-3.18-3.08c-8.96-8.53-19.37-15.99-30.65-22.39c-11.28-6.4-23.42-11.61-36-15.64
			c-12.58-4.15-25.59-7.11-38.89-9.12c-13.16-2.01-26.6-3.08-39.9-3.44c-13.3-0.36-26.6,0-39.76,1.07
			c-3.32,0.24-6.51,0.47-9.83,0.83l-2.46,0.24l-2.46,0.24l-4.77,0.47c-3.18,0.36-6.65,0.83-9.83,1.3s-6.51,0.95-9.69,1.54
			c-12.87,2.13-25.73,4.74-38.31,7.82c-25.15,6.28-49.59,13.98-73.15,23.22c-23.56,9.12-46.41,19.43-68.52,30.68
			c-10.99,5.69-21.83,11.49-32.53,17.53c-10.7,6.04-21.25,12.2-31.51,18.72c-20.53,12.91-40.48,26.54-59.13,41.23
			c9.97-6.75,20.24-13.15,30.65-19.43c10.41-6.28,20.96-12.44,31.66-18.24c21.4-11.85,43.22-22.98,65.63-33.17
			c11.28-5.09,22.55-10.07,33.97-14.81c11.57-4.62,23.13-9.12,34.84-13.15c23.56-8.17,47.56-15.4,72.14-20.85
			c12.29-2.72,24.72-4.98,37.15-6.75c3.18-0.47,6.22-0.83,9.4-1.3c3.18-0.36,6.22-0.71,9.25-1.07l4.77-0.47l2.31-0.24l2.31-0.24
			c3.18-0.24,6.36-0.47,9.4-0.71c12.58-0.71,25.15-0.95,37.73-0.47c12.58,0.47,25.01,1.66,37.15,3.67
			c24.29,4.03,47.71,11.37,67.66,22.86c9.97,5.69,19.08,12.44,27.03,19.9c3.9,3.79,7.52,7.7,10.84,11.85
			c1.59,2.01,3.18,4.15,4.48,6.28c0.72,1.07,1.3,2.13,2.02,3.2l0.87,1.54c0.29,0.47,0.58,1.18,0.72,1.42l17.2,37.91l1.16-40.4
			c0.14-2.61,0-5.09,0-7.7c0-2.49-0.14-5.09-0.29-7.58c-0.29-5.09-0.58-10.19-1.16-15.28c-0.29-2.61-0.58-5.09-1.01-7.7
			c-0.43-2.49-1.01-5.33-1.45-7.82l-0.43-1.78l-0.29-1.07l-0.29-0.95l-1.01-3.79c-0.72-2.49-1.59-4.98-2.31-7.46
			c-0.72-2.49-1.73-4.86-2.6-7.34l-2.89-7.23c-1.01-2.37-2.02-4.86-3.04-7.23c-1.01-2.37-2.17-4.74-3.32-7.11
			c-0.58-1.18-1.16-2.37-1.73-3.55c4.05,2.84,8.1,5.69,11.85,8.77c5.49,4.62,10.7,9.48,15.32,14.69c2.31,2.61,4.48,5.33,6.51,8.06
			c2.02,2.72,3.9,5.57,5.64,8.41c0.87,1.42,1.73,2.72,2.46,4.38l1.3,2.37l0.29,0.59l0.14,0.47l0.58,1.07
			c1.45,2.96,2.75,6.04,4.05,9.12l1.73,4.74l1.59,4.74c1.01,3.2,2.02,6.4,2.89,9.71c1.88,6.52,3.47,13.15,4.92,19.78l2.02,9.95
			c0.58,3.32,1.3,6.63,1.73,9.95l2.75,16.94l11.13-14.1l4.92-6.16l4.77-6.16c1.59-2.13,3.18-4.15,4.63-6.28l4.63-6.28l4.48-6.4
			c1.45-2.13,2.89-4.38,4.34-6.52l2.17-3.32l1.88-3.32l1.88-3.32l1.01-1.78l0.87-1.66c2.46-4.5,4.77-9.12,6.79-13.74
			c2.02-4.62,4.05-9.24,5.78-13.98c1.73-4.74,3.47-9.36,4.92-14.22c0.14-0.59,0.43-1.3,0.58-1.9c0.87,1.78,1.73,3.55,2.46,5.45
			c1.3,2.96,2.46,5.8,3.47,8.89c1.01,2.96,1.88,6.04,2.75,9c0.72,3.08,1.59,6.04,2.02,9.12c0.58,3.08,1.01,6.16,1.3,9.24
			c0.29,1.54,0.29,3.08,0.29,4.62c0,1.54,0.29,3.08,0.29,4.62v4.74v1.18v0.47V149l-0.14,2.37c-0.29,3.08-0.58,6.16-1.16,9.24
			c-0.58,3.08-1.3,6.16-2.17,9.24c-0.87,3.08-1.88,6.04-3.04,9s-2.46,5.92-3.9,8.89c-2.89,5.8-6.07,11.61-9.83,17.18
			c-3.76,5.57-7.81,10.9-12.43,15.99c5.2-4.74,9.69-9.95,13.88-15.28c4.19-5.33,8.1-10.9,11.42-16.82
			c6.65-11.61,11.42-24.05,13.16-37.08l0.29-2.49l0.14-0.59v-0.71l0.14-1.18l0.29-4.74
			C1199.44,139.87,1199.58,136.56,1199.44,133.24z"/>
		<path d="M873.59,257.99c0.87-4.98,2.6-9.36,5.93-12.79c3.18-3.44,7.81-5.92,13.3-7.7c5.49-1.66,11.42-2.61,17.2-2.96
			c5.78-0.47,11.57-0.47,16.91-0.24c5.35,0.12,10.26,0.59,14.6,0.95s8.24,0.83,11.42,1.18c6.36,0.71,9.97,1.3,9.97,1.3
			s-3.18-1.66-9.11-3.91c-5.93-2.25-14.46-5.21-25.59-7.34c-5.49-1.07-11.57-2.01-18.36-2.37c-6.65-0.36-14.02-0.24-21.68,1.42
			c-7.66,1.54-15.76,4.86-21.97,10.43c-3.04,2.72-5.49,5.92-7.37,9.36c-1.88,3.32-2.89,6.87-3.61,10.31
			c-0.43,1.78-0.58,3.44-0.72,5.09s-0.14,3.44-0.29,4.86c-0.14,2.84-0.14,6.16,0,9.24c0.29,6.16,1.01,12.08,2.17,17.89
			c1.16,5.8,2.75,11.25,4.63,16.47c1.88,5.09,4.05,9.83,6.36,14.1c2.31,4.26,4.77,8.06,7.23,11.25c2.46,3.2,4.77,5.92,6.94,7.94
			c2.02,2.13,3.9,3.67,5.2,4.62c1.3,1.07,2.02,1.42,2.02,1.42s-0.29-0.71-1.01-2.01c-0.58-1.3-1.45-3.32-2.46-5.8
			c-1.88-4.98-4.34-12.08-6.36-20.61c-2.02-8.53-3.9-18.48-4.92-29.26c-0.58-5.33-0.87-10.9-1.01-16.59c0-2.84-0.14-5.45-0.14-8.53
			c0-1.54,0-2.72,0.14-4.03C873.3,260.47,873.45,259.17,873.59,257.99z"/>
		<path d="M958.88,262.72c-3.61-1.54-9.11-3.55-16.19-4.86c-3.61-0.59-7.66-1.07-12.14-0.83c-4.48,0.24-9.69,1.07-14.46,3.91
			c-4.92,2.72-8.24,7.46-9.54,11.97c-0.29,1.07-0.58,2.25-0.72,3.44l-0.14,1.66l-0.14,0.83l0,0v0.47v0.12v0.12v0.36l0.14,2.84v1.42
			v0.71l0.14,0.83l0.72,3.32c0.29,1.07,0.43,2.25,0.87,3.2c0.72,2.01,1.45,4.03,2.46,5.8c1.88,3.79,4.19,7.23,6.79,10.31
			c1.3,1.54,2.6,3.08,3.9,4.5c1.45,1.3,2.75,2.72,4.19,3.91c1.45,1.18,2.75,2.37,4.19,3.55c1.45,1.07,2.75,2.13,4.19,3.08
			c2.75,1.9,5.35,3.44,7.66,4.86c2.31,1.3,4.48,2.37,6.36,3.2c1.73,0.83,3.18,1.42,4.19,1.78c1.01,0.36,1.59,0.59,1.59,0.59
			s-1.45-1.54-3.9-4.15c-1.3-1.3-2.75-2.96-4.34-4.74c-1.59-1.78-3.47-3.91-5.35-6.16c-0.87-1.18-1.88-2.25-2.89-3.55
			c-1.01-1.18-2.02-2.49-3.04-3.79c-1.01-1.3-1.88-2.72-2.89-4.03c-1.01-1.42-1.88-2.84-2.75-4.26c-1.01-1.42-1.73-2.96-2.6-4.5
			c-0.43-0.71-0.72-1.54-1.16-2.25c-0.29-0.83-0.72-1.54-1.01-2.37c-0.72-1.54-1.01-3.2-1.73-4.74c-0.29-0.83-0.43-1.54-0.58-2.25
			l-0.43-2.25l-0.14-0.59v-0.71l-0.14-1.42l-0.14-2.84v-0.36l0,0v-0.47v-1.07c0-0.71,0.14-1.42,0.29-2.13
			c0.58-2.61,1.73-4.74,3.76-6.28c2.02-1.54,5.06-2.72,8.24-3.32c3.18-0.71,6.65-0.95,9.97-1.07c6.51-0.24,12.14,0.12,16.19,0.36
			c2.02,0.12,3.61,0.24,4.63,0.36c1.16,0.12,1.73,0.12,1.73,0.12s-0.43-0.24-1.45-0.71C962.21,264.26,960.76,263.55,958.88,262.72z"
			/>
	</g>
	<path d="M651.54,183.47c0,0,5.64-3.2,16.05-8.29c5.2-2.49,11.42-5.57,18.79-8.89c7.37-3.32,15.61-6.99,24.87-10.78
		c9.25-3.79,19.37-7.82,30.21-11.61c10.84-3.91,22.41-7.82,34.55-11.37c12.14-3.55,24.86-7.11,38.16-9.95
		c13.16-2.84,26.89-5.33,40.62-7.11c13.88-1.54,28.05-2.49,42.07-1.78c1.73,0.12,3.47,0.24,5.2,0.24c1.73,0.12,3.47,0.36,5.2,0.47
		c1.73,0.24,3.47,0.36,5.2,0.59s3.32,0.59,5.06,0.83c1.59,0.24,3.18,0.47,4.92,0.83s3.32,0.71,5.06,1.07
		c3.32,0.59,6.51,1.54,9.69,2.25c12.72,3.2,24.29,7.94,34.7,13.27c5.2,2.61,9.97,5.45,14.46,8.41c4.34,2.96,8.53,6.04,12.14,9.12
		c7.37,6.16,13.16,12.44,17.78,18.36c4.63,5.8,7.95,11.25,10.55,15.76c2.46,4.5,4.05,8.17,5.06,10.78c1.01,2.49,1.3,3.91,1.3,3.91
		s-0.58-1.3-2.02-3.67c-1.3-2.37-3.61-5.8-6.65-9.95c-3.04-4.15-7.08-9.12-12.29-14.33c-5.2-5.21-11.42-10.78-18.94-16.23
		c-7.52-5.33-16.34-10.66-26.31-15.16c-9.97-4.5-21.11-8.29-32.96-11.14c-3.04-0.59-6.07-1.42-8.96-1.9
		c-1.45-0.24-3.04-0.59-4.48-0.83c-1.59-0.24-3.18-0.47-4.77-0.71c-1.59-0.24-3.18-0.47-4.77-0.59c-1.59-0.12-3.18-0.24-4.77-0.36
		c-1.59-0.12-3.18-0.36-4.77-0.36l-4.77-0.24c-12.87-0.36-26.31,0.36-39.47,2.01c-13.3,1.54-26.46,3.79-39.32,6.52
		c-12.87,2.72-25.59,5.57-37.59,8.89c-12.14,3.32-23.71,6.52-34.7,9.83s-21.25,6.63-30.79,9.83c-9.54,3.2-18.22,6.16-25.88,8.77
		c-7.66,2.72-14.31,5.09-19.81,7.11s-9.83,3.55-12.72,4.62C653.13,182.88,651.54,183.47,651.54,183.47z"/>
</g>
<path d="M1266.8,206.2"/>
</svg>
