<?xml version="1.0" encoding="UTF-8"?>
<svg id="OBJECTS" xmlns="http://www.w3.org/2000/svg" viewBox="0 0 1606.94 1295.31">
  <defs>
    <style>
      .cls-1 {
        fill: #fff;
      }
    </style>
  </defs>
  <path class="cls-1" d="M1605.83,110.9l-37.96,1.11c28.97-39.37,4.04-74.86,4.04-74.86,0,0,8.42-32.16-27.62-37.15l-31.1,22.32-79.4,56.98s-88.26,5.55-101.74,10.54c-13.48,4.99-110.5,85.95-110.5,85.95l-144.41,67.83s27.77,20.91,63.51,34.6l-94.44,51.53,18.81,15.01-96.58,34.16,18.66,25.73h-87.26s-162,14.43-195.53,17.91c-91.23,9.48-225.2,35.05-315.48,53.47-77.28,15.77-144.84,54.14-190.2,107.99-12.67,15.04-26.38,32.45-40.98,52.55C82.74,739.68,1.35,934.88,0,955.95l36.38-13.31s-25.6,82.07,8.09,121.99c33.69,39.92,101.07-6.65,119.93-74.3l4.04,25.51s41.77-89.83,45.82-166.35c.97-18.3,.46-37.04-.14-55.7l3.77,1.5c5.44,24.11,17.18,55.93,42.64,84.88,49.41,56.19,44.02,138.93,0,199.22l-6.13,95.78,57.34,115.34h119.48s-1.35-31.79-55.7-48.8l-35.93-107.94s-.54-16.77,14.15-47.33l5.76,2.06,16.03,65.22,69.15,120.51h113.5c-13.19-42.88-60.47-42.88-60.47-42.88,0,0-52.11-96.11-53-117.55-.9-21.44,23.36-65.06,23.36-65.06,108.93-64.11,180.44-183.14,198.85-216.23l.12-.13,24.06,3.49c9.11,2.74,20.61,6.1,33.38,9.62,59.94,21.83,146.56,43.69,238.49,34.71,6.9,.49,12.87,.91,17.75,1.23-6.09,31.15-2.38,55.72-2.38,55.72h18.87v108.63l17.52-15.53,10.78,186.31,13.48,78.74h133.41c-2.07-8.53-5.51-15.44-9.68-21.07h119.28c-1.8-37.71-62.47-54.33-62.47-54.33l-7.6-43.26s.58-13.45,1.71-34.33l-1.01,2.73,20.13-214.43s7.35-71.75,41.31-91.34c19.57-11.29,32.73-29.7,40.4-43.29l10.44,6.33c31.67-30.69,61.93-119.3,61.93-119.3l11.96,5.21,12.85-70.79,9.6,6.94c34.14-57.67,59.29-156,59.29-156l20.66,16.26,17.07-85.76,14.37,14.79c16.17-41.4-.9-99.81-.9-99.81l27.85,11.83c5.39-32.53-26.05-121.25-26.05-121.25l15.27-7.02c70.97-36.97,57.05-86.5,57.05-86.5Zm-496.8,1086.82s1.18-23.63,3-54.45l29.5,113.74c-13.98-6.8-27.11-7.17-27.11-7.17l-5.39-52.12Z"/>
</svg>
